%TF.GenerationSoftware,KiCad,Pcbnew,9.0.6*%
%TF.CreationDate,2026-10-03T22:42:50+05:30*%
%TF.ProjectId,ACB_BMS,4143425f-424d-4532-9e6b-696361645f70,rev?*%
%TF.SameCoordinates,Original*%
%TF.FileFunction,Copper,L1,Top*%
%TF.FilePolarity,Positive*%
%FSLAX46Y46*%
G04 Gerber Fmt 4.6, Leading zero omitted, Abs format (unit mm)*
G04 Created by KiCad (PCBNEW 9.0.6) date 2026-10-03 22:42:50*
%MOMM*%
%LPD*%
G01*
G04 APERTURE LIST*
G04 Aperture macros list*
%AMRoundRect*
0 Rectangle with rounded corners*
0 $1 Rounding radius*
0 $2 $3 $4 $5 $6 $7 $8 $9 X,Y pos of 4 corners*
0 Add a 4 corners polygon primitive as box body*
4,1,4,$2,$3,$4,$5,$6,$7,$8,$9,$2,$3,0*
0 Add four circle primitives for the rounded corners*
1,1,$1+$1,$2,$3*
1,1,$1+$1,$4,$5*
1,1,$1+$1,$6,$7*
1,1,$1+$1,$8,$9*
0 Add four rect primitives between the rounded corners*
20,1,$1+$1,$2,$3,$4,$5,0*
20,1,$1+$1,$4,$5,$6,$7,0*
20,1,$1+$1,$6,$7,$8,$9,0*
20,1,$1+$1,$8,$9,$2,$3,0*%
G04 Aperture macros list end*
%TA.AperFunction,SMDPad,CuDef*%
%ADD10RoundRect,0.250000X2.600000X-0.600000X2.600000X0.600000X-2.600000X0.600000X-2.600000X-0.600000X0*%
%TD*%
%TA.AperFunction,SMDPad,CuDef*%
%ADD11RoundRect,0.100000X0.217500X0.100000X-0.217500X0.100000X-0.217500X-0.100000X0.217500X-0.100000X0*%
%TD*%
%TA.AperFunction,SMDPad,CuDef*%
%ADD12RoundRect,0.250001X0.899999X-0.612499X0.899999X0.612499X-0.899999X0.612499X-0.899999X-0.612499X0*%
%TD*%
%TA.AperFunction,SMDPad,CuDef*%
%ADD13RoundRect,0.250001X-0.899999X0.612499X-0.899999X-0.612499X0.899999X-0.612499X0.899999X0.612499X0*%
%TD*%
%TA.AperFunction,SMDPad,CuDef*%
%ADD14RoundRect,0.250001X0.612499X0.899999X-0.612499X0.899999X-0.612499X-0.899999X0.612499X-0.899999X0*%
%TD*%
%TA.AperFunction,ComponentPad*%
%ADD15R,1.000000X1.000000*%
%TD*%
%TA.AperFunction,ComponentPad*%
%ADD16C,1.000000*%
%TD*%
%TA.AperFunction,SMDPad,CuDef*%
%ADD17RoundRect,0.100000X-0.217500X-0.100000X0.217500X-0.100000X0.217500X0.100000X-0.217500X0.100000X0*%
%TD*%
%TA.AperFunction,SMDPad,CuDef*%
%ADD18RoundRect,0.250001X-0.612499X-0.899999X0.612499X-0.899999X0.612499X0.899999X-0.612499X0.899999X0*%
%TD*%
%TA.AperFunction,SMDPad,CuDef*%
%ADD19R,0.800000X0.300000*%
%TD*%
%TA.AperFunction,SMDPad,CuDef*%
%ADD20R,0.700000X1.300000*%
%TD*%
%TA.AperFunction,ViaPad*%
%ADD21C,0.600000*%
%TD*%
%TA.AperFunction,Conductor*%
%ADD22C,0.300000*%
%TD*%
%TA.AperFunction,Conductor*%
%ADD23C,0.400000*%
%TD*%
G04 APERTURE END LIST*
D10*
%TO.P,L2,1,1*%
%TO.N,Net-(IC2-SW)*%
X185910000Y-129390000D03*
%TO.P,L2,2,2*%
%TO.N,Net-(IC1-BATN)*%
X185910000Y-124890000D03*
%TD*%
D11*
%TO.P,R2,1*%
%TO.N,Net-(IC2-ISET)*%
X179497500Y-121330000D03*
%TO.P,R2,2*%
%TO.N,GND*%
X178682500Y-121330000D03*
%TD*%
D12*
%TO.P,C5,1*%
%TO.N,Net-(IC1-BATN)*%
X176320000Y-129282500D03*
%TO.P,C5,2*%
%TO.N,Net-(IC1-BATC)*%
X176320000Y-124957500D03*
%TD*%
D10*
%TO.P,L1,1,1*%
%TO.N,Net-(IC1-SW)*%
X163420000Y-129658500D03*
%TO.P,L1,2,2*%
%TO.N,Net-(IC1-BATC)*%
X163420000Y-125158500D03*
%TD*%
D13*
%TO.P,C4,1*%
%TO.N,Net-(IC1-BATC)*%
X173030000Y-124957500D03*
%TO.P,C4,2*%
%TO.N,Net-(IC1-BATP)*%
X173030000Y-129282500D03*
%TD*%
D14*
%TO.P,C6,1*%
%TO.N,Net-(IC1-BATN)*%
X167012500Y-121250000D03*
%TO.P,C6,2*%
%TO.N,Net-(IC1-BATC)*%
X162687500Y-121250000D03*
%TD*%
D15*
%TO.P,J1,1,Pin_1*%
%TO.N,Net-(IC1-BATP)*%
X172770000Y-121330000D03*
D16*
%TO.P,J1,2,Pin_2*%
%TO.N,Net-(IC1-BATC)*%
X174040000Y-121330000D03*
%TO.P,J1,3,Pin_3*%
%TO.N,Net-(IC1-BATN)*%
X175310000Y-121330000D03*
%TO.P,J1,4,Pin_4*%
%TO.N,GND*%
X176580000Y-121330000D03*
%TD*%
D17*
%TO.P,C1,1*%
%TO.N,Net-(IC1-ISET)*%
X169850000Y-120130000D03*
%TO.P,C1,2*%
%TO.N,Net-(IC1-BATN)*%
X170665000Y-120130000D03*
%TD*%
D18*
%TO.P,C7,1*%
%TO.N,GND*%
X181967500Y-121180000D03*
%TO.P,C7,2*%
%TO.N,Net-(IC1-BATN)*%
X186292500Y-121180000D03*
%TD*%
D11*
%TO.P,C3,1*%
%TO.N,Net-(IC1-BIAS)*%
X169600000Y-130050000D03*
%TO.P,C3,2*%
%TO.N,Net-(IC1-SW)*%
X168785000Y-130050000D03*
%TD*%
D19*
%TO.P,IC1,1,BATC*%
%TO.N,Net-(IC1-BATC)*%
X168230000Y-126910000D03*
%TO.P,IC1,2,BATP*%
%TO.N,Net-(IC1-BATP)*%
X168230000Y-127410000D03*
%TO.P,IC1,3,SW*%
%TO.N,Net-(IC1-SW)*%
X168230000Y-127910000D03*
%TO.P,IC1,4,BATN*%
%TO.N,Net-(IC1-BATN)*%
X168230000Y-128410000D03*
%TO.P,IC1,5,BIAS*%
%TO.N,Net-(IC1-BIAS)*%
X170130000Y-128410000D03*
%TO.P,IC1,6,STAT*%
%TO.N,Net-(D1-K)*%
X170130000Y-127910000D03*
%TO.P,IC1,7,ISET*%
%TO.N,Net-(IC1-ISET)*%
X170130000Y-127410000D03*
%TO.P,IC1,8,EN*%
%TO.N,unconnected-(IC1-EN-Pad8)*%
X170130000Y-126910000D03*
D20*
%TO.P,IC1,9,EP*%
%TO.N,GND*%
X169180000Y-127660000D03*
%TD*%
D11*
%TO.P,R3,1*%
%TO.N,Net-(D1-A)*%
X168587500Y-124190000D03*
%TO.P,R3,2*%
%TO.N,Net-(IC1-BATP)*%
X167772500Y-124190000D03*
%TD*%
D19*
%TO.P,IC2,1,BATC*%
%TO.N,Net-(IC1-BATN)*%
X180930000Y-128041500D03*
%TO.P,IC2,2,BATP*%
%TO.N,Net-(IC1-BATC)*%
X180930000Y-127541500D03*
%TO.P,IC2,3,SW*%
%TO.N,Net-(IC2-SW)*%
X180930000Y-127041500D03*
%TO.P,IC2,4,BATN*%
%TO.N,GND*%
X180930000Y-126541500D03*
%TO.P,IC2,5,BIAS*%
%TO.N,Net-(IC2-BIAS)*%
X179030000Y-126541500D03*
%TO.P,IC2,6,STAT*%
%TO.N,Net-(D2-K)*%
X179030000Y-127041500D03*
%TO.P,IC2,7,ISET*%
%TO.N,Net-(IC2-ISET)*%
X179030000Y-127541500D03*
%TO.P,IC2,8,EN*%
%TO.N,unconnected-(IC2-EN-Pad8)*%
X179030000Y-128041500D03*
D20*
%TO.P,IC2,9,EP*%
%TO.N,GND*%
X179980000Y-127291500D03*
%TD*%
D17*
%TO.P,C8,1*%
%TO.N,Net-(IC2-BIAS)*%
X178902500Y-130520000D03*
%TO.P,C8,2*%
%TO.N,Net-(IC2-SW)*%
X179717500Y-130520000D03*
%TD*%
%TO.P,R4,1*%
%TO.N,Net-(D2-A)*%
X180660000Y-124220000D03*
%TO.P,R4,2*%
%TO.N,Net-(IC1-BATC)*%
X181475000Y-124220000D03*
%TD*%
D11*
%TO.P,BT1&2,1,K*%
%TO.N,Net-(D1-K)*%
X170657500Y-124190000D03*
%TO.P,BT1&2,2,A*%
%TO.N,Net-(D1-A)*%
X169842500Y-124190000D03*
%TD*%
%TO.P,C2,1*%
%TO.N,Net-(IC2-ISET)*%
X179545000Y-120130000D03*
%TO.P,C2,2*%
%TO.N,GND*%
X178730000Y-120130000D03*
%TD*%
D17*
%TO.P,R1,1*%
%TO.N,Net-(IC1-ISET)*%
X169850000Y-121330000D03*
%TO.P,R1,2*%
%TO.N,Net-(IC1-BATN)*%
X170665000Y-121330000D03*
%TD*%
%TO.P,BT2&3,1,K*%
%TO.N,Net-(D2-K)*%
X178642500Y-124220000D03*
%TO.P,BT2&3,2,A*%
%TO.N,Net-(D2-A)*%
X179457500Y-124220000D03*
%TD*%
D21*
%TO.N,Net-(IC2-ISET)*%
X179510000Y-122480000D03*
X176880000Y-127550000D03*
%TO.N,Net-(IC1-BATC)*%
X177970000Y-123330000D03*
X181960000Y-127760000D03*
X180770000Y-125190000D03*
%TO.N,GND*%
X169180000Y-125770000D03*
%TO.N,Net-(IC1-ISET)*%
X171140000Y-127410000D03*
X168870000Y-121320000D03*
%TO.N,Net-(IC2-BIAS)*%
X178640000Y-129640000D03*
X178650000Y-125460000D03*
%TO.N,Net-(IC1-BATN)*%
X167130000Y-129270000D03*
X180560000Y-129180000D03*
X165685000Y-123215000D03*
X185600000Y-127040000D03*
%TO.N,Net-(IC1-BATP)*%
X167790000Y-124950000D03*
X171326000Y-122774000D03*
X167210000Y-127140000D03*
X173040000Y-127840000D03*
%TO.N,Net-(D1-K)*%
X171190000Y-128360000D03*
X172100000Y-123400000D03*
%TD*%
D22*
%TO.N,Net-(IC2-ISET)*%
X179030000Y-127541500D02*
X176888500Y-127541500D01*
X179497500Y-121330000D02*
X179497500Y-122467500D01*
X179545000Y-121282500D02*
X179497500Y-121330000D01*
X176888500Y-127541500D02*
X176880000Y-127550000D01*
X179497500Y-122467500D02*
X179510000Y-122480000D01*
X179545000Y-120130000D02*
X179545000Y-121282500D01*
%TO.N,Net-(IC1-BATC)*%
X181475000Y-124220000D02*
X181475000Y-124485000D01*
X174040000Y-121330000D02*
X174040000Y-121762000D01*
X176320000Y-124957500D02*
X176342500Y-124957500D01*
X181741500Y-127541500D02*
X181960000Y-127760000D01*
X162687500Y-121250000D02*
X162687500Y-124426000D01*
X169071846Y-124957500D02*
X173030000Y-124957500D01*
X166478500Y-125158500D02*
X168230000Y-126910000D01*
X163420000Y-125158500D02*
X166478500Y-125158500D01*
X162687500Y-124426000D02*
X163420000Y-125158500D01*
X168230000Y-126910000D02*
X168230000Y-125799346D01*
X176320000Y-124957500D02*
X173030000Y-124957500D01*
X180930000Y-127541500D02*
X181741500Y-127541500D01*
X176342500Y-124957500D02*
X177970000Y-123330000D01*
X173030000Y-122772000D02*
X173030000Y-124957500D01*
X181475000Y-124485000D02*
X180770000Y-125190000D01*
X168230000Y-125799346D02*
X169071846Y-124957500D01*
X174040000Y-121762000D02*
X173030000Y-122772000D01*
%TO.N,GND*%
X180118500Y-126541500D02*
X180050000Y-126610000D01*
X180930000Y-126541500D02*
X180118500Y-126541500D01*
X178730000Y-119930001D02*
X178730000Y-120130000D01*
X179081001Y-119579000D02*
X178730000Y-119930001D01*
X180930000Y-126541500D02*
X182150000Y-125321500D01*
X181967500Y-121180000D02*
X180366500Y-119579000D01*
D23*
X178730000Y-121282500D02*
X178682500Y-121330000D01*
D22*
X180366500Y-119579000D02*
X179081001Y-119579000D01*
X176627500Y-121282500D02*
X176580000Y-121330000D01*
X182150000Y-125321500D02*
X182150000Y-121362500D01*
X182150000Y-121362500D02*
X181967500Y-121180000D01*
X178730000Y-121282500D02*
X176627500Y-121282500D01*
X178730000Y-120130000D02*
X178730000Y-121282500D01*
X169180000Y-127660000D02*
X169180000Y-125770000D01*
%TO.N,Net-(IC1-ISET)*%
X170130000Y-127410000D02*
X171140000Y-127410000D01*
X169850000Y-120130000D02*
X169850000Y-121330000D01*
X169850000Y-121330000D02*
X168880000Y-121330000D01*
X168880000Y-121330000D02*
X168870000Y-121320000D01*
%TO.N,Net-(IC2-SW)*%
X185330000Y-128810000D02*
X185910000Y-129390000D01*
X179717500Y-130520000D02*
X184780000Y-130520000D01*
X184780000Y-130520000D02*
X185910000Y-129390000D01*
X185330000Y-128100000D02*
X185330000Y-128810000D01*
X184271500Y-127041500D02*
X185330000Y-128100000D01*
X180930000Y-127041500D02*
X184271500Y-127041500D01*
%TO.N,Net-(IC2-BIAS)*%
X178640000Y-130257500D02*
X178640000Y-129640000D01*
X179030000Y-125840000D02*
X178650000Y-125460000D01*
X179030000Y-126541500D02*
X179030000Y-125840000D01*
X178902500Y-130520000D02*
X178640000Y-130257500D01*
%TO.N,Net-(IC1-BATN)*%
X177562000Y-119078000D02*
X184190500Y-119078000D01*
X167990000Y-128410000D02*
X167130000Y-129270000D01*
X180930000Y-128041500D02*
X180930000Y-128810000D01*
X165685000Y-123215000D02*
X165590000Y-123310000D01*
X185910000Y-126730000D02*
X185600000Y-127040000D01*
X184190500Y-119078000D02*
X186292500Y-121180000D01*
X175310000Y-121330000D02*
X174110000Y-120130000D01*
X185910000Y-124890000D02*
X185910000Y-126730000D01*
X170665000Y-120130000D02*
X170665000Y-121330000D01*
X167482500Y-121280000D02*
X169462500Y-119300000D01*
X174110000Y-120130000D02*
X170665000Y-120130000D01*
X178070000Y-128920000D02*
X180300000Y-128920000D01*
X169462500Y-119300000D02*
X170034999Y-119300000D01*
X180930000Y-128810000D02*
X180560000Y-129180000D01*
X180968500Y-128080000D02*
X180930000Y-128041500D01*
X185910000Y-121562500D02*
X186292500Y-121180000D01*
X170034999Y-119300000D02*
X170665000Y-119930001D01*
X180457500Y-129282500D02*
X180560000Y-129180000D01*
X175310000Y-121330000D02*
X177562000Y-119078000D01*
X167482500Y-121417500D02*
X165685000Y-123215000D01*
X180300000Y-128920000D02*
X180560000Y-129180000D01*
X170665000Y-119930001D02*
X170665000Y-120130000D01*
X177707500Y-129282500D02*
X178070000Y-128920000D01*
X168230000Y-128410000D02*
X167990000Y-128410000D01*
X185910000Y-124890000D02*
X185910000Y-121562500D01*
X176320000Y-129282500D02*
X177707500Y-129282500D01*
X167482500Y-121280000D02*
X167482500Y-121417500D01*
%TO.N,Net-(IC1-BATP)*%
X167772500Y-124932500D02*
X167790000Y-124950000D01*
X168988501Y-122774000D02*
X167772500Y-123990001D01*
X167772500Y-124190000D02*
X167772500Y-124932500D01*
X173030000Y-129282500D02*
X173030000Y-127850000D01*
X172770000Y-121330000D02*
X171326000Y-122774000D01*
X167480000Y-127410000D02*
X167210000Y-127140000D01*
X171326000Y-122774000D02*
X168988501Y-122774000D01*
X173030000Y-127850000D02*
X173040000Y-127840000D01*
X167772500Y-123990001D02*
X167772500Y-124190000D01*
X168230000Y-127410000D02*
X167480000Y-127410000D01*
%TO.N,Net-(IC1-BIAS)*%
X169600000Y-128940000D02*
X170130000Y-128410000D01*
X169600000Y-130050000D02*
X169600000Y-128940000D01*
%TO.N,Net-(IC1-SW)*%
X168785000Y-130050000D02*
X163811500Y-130050000D01*
X166645000Y-127910000D02*
X165168500Y-127910000D01*
X165168500Y-127910000D02*
X163420000Y-129658500D01*
X163811500Y-130050000D02*
X163420000Y-129658500D01*
X168230000Y-127910000D02*
X166645000Y-127910000D01*
%TO.N,Net-(D1-K)*%
X170130000Y-127910000D02*
X170719346Y-127910000D01*
X170657500Y-124190000D02*
X171310000Y-124190000D01*
X171169346Y-128360000D02*
X171190000Y-128360000D01*
X170719346Y-127910000D02*
X171169346Y-128360000D01*
X171310000Y-124190000D02*
X172100000Y-123400000D01*
%TO.N,Net-(D1-A)*%
X168587500Y-124190000D02*
X169842500Y-124190000D01*
%TO.N,Net-(D2-A)*%
X179457500Y-124220000D02*
X180660000Y-124220000D01*
%TO.N,Net-(D2-K)*%
X178642500Y-124220000D02*
X177821000Y-125041500D01*
X177821000Y-125041500D02*
X177821000Y-126584500D01*
X178278000Y-127041500D02*
X179030000Y-127041500D01*
X177821000Y-126584500D02*
X178278000Y-127041500D01*
%TD*%
%TA.AperFunction,Conductor*%
%TO.N,Net-(IC1-BATN)*%
G36*
X165878068Y-122822251D02*
G01*
X166077748Y-123021931D01*
X166081175Y-123030204D01*
X166079716Y-123035862D01*
X165982600Y-123211658D01*
X165975600Y-123217242D01*
X165972278Y-123217700D01*
X165695832Y-123215786D01*
X165687583Y-123212302D01*
X165684213Y-123204167D01*
X165683009Y-123030204D01*
X165682299Y-122927720D01*
X165685669Y-122919424D01*
X165688337Y-122917401D01*
X165864137Y-122820282D01*
X165873036Y-122819282D01*
X165878068Y-122822251D01*
G37*
%TD.AperFunction*%
%TD*%
%TA.AperFunction,Conductor*%
%TO.N,Net-(IC1-ISET)*%
G36*
X169087816Y-121117177D02*
G01*
X169276101Y-121177398D01*
X169282936Y-121183181D01*
X169284236Y-121188541D01*
X169284236Y-121470933D01*
X169280809Y-121479206D01*
X169275457Y-121482263D01*
X169077883Y-121533201D01*
X169069016Y-121531948D01*
X169066440Y-121529888D01*
X168876911Y-121328409D01*
X168873738Y-121320035D01*
X168877303Y-121311978D01*
X169076130Y-121119906D01*
X169084460Y-121116624D01*
X169087816Y-121117177D01*
G37*
%TD.AperFunction*%
%TD*%
%TA.AperFunction,Conductor*%
%TO.N,Net-(IC1-ISET)*%
G36*
X170936101Y-127202928D02*
G01*
X170938773Y-127204953D01*
X171132896Y-127401784D01*
X171136266Y-127410081D01*
X171132896Y-127418216D01*
X170938773Y-127615046D01*
X170937179Y-127615719D01*
X170936101Y-127617071D01*
X170933207Y-127617396D01*
X170930524Y-127618530D01*
X170927202Y-127618072D01*
X170903631Y-127611277D01*
X170901022Y-127610168D01*
X170895553Y-127607011D01*
X170854634Y-127583386D01*
X170854633Y-127583385D01*
X170854630Y-127583384D01*
X170854632Y-127583384D01*
X170765492Y-127559500D01*
X170765490Y-127559500D01*
X170737464Y-127559500D01*
X170729191Y-127556073D01*
X170725764Y-127547800D01*
X170725764Y-127268803D01*
X170729191Y-127260530D01*
X170734221Y-127257561D01*
X170927203Y-127201927D01*
X170936101Y-127202928D01*
G37*
%TD.AperFunction*%
%TD*%
%TA.AperFunction,Conductor*%
%TO.N,Net-(IC1-BATC)*%
G36*
X177959167Y-123329213D02*
G01*
X177967416Y-123332697D01*
X177970786Y-123340832D01*
X177972700Y-123617278D01*
X177969330Y-123625575D01*
X177966658Y-123627600D01*
X177790862Y-123724716D01*
X177781963Y-123725717D01*
X177776931Y-123722748D01*
X177577251Y-123523068D01*
X177573824Y-123514795D01*
X177575283Y-123509137D01*
X177668261Y-123340832D01*
X177672400Y-123333340D01*
X177679399Y-123327757D01*
X177682719Y-123327299D01*
X177959167Y-123329213D01*
G37*
%TD.AperFunction*%
%TD*%
%TA.AperFunction,Conductor*%
%TO.N,Net-(IC1-BATN)*%
G36*
X185793068Y-126647251D02*
G01*
X185992748Y-126846931D01*
X185996175Y-126855204D01*
X185994716Y-126860862D01*
X185897600Y-127036658D01*
X185890600Y-127042242D01*
X185887278Y-127042700D01*
X185610832Y-127040786D01*
X185602583Y-127037302D01*
X185599213Y-127029167D01*
X185598009Y-126855204D01*
X185597299Y-126752720D01*
X185600669Y-126744424D01*
X185603337Y-126742401D01*
X185779137Y-126645282D01*
X185788036Y-126644282D01*
X185793068Y-126647251D01*
G37*
%TD.AperFunction*%
%TD*%
%TA.AperFunction,Conductor*%
%TO.N,GND*%
G36*
X169188216Y-125777103D02*
G01*
X169385046Y-125971226D01*
X169388530Y-125979475D01*
X169388072Y-125982797D01*
X169332439Y-126175777D01*
X169326855Y-126182777D01*
X169321197Y-126184236D01*
X169038803Y-126184236D01*
X169030530Y-126180809D01*
X169027561Y-126175777D01*
X168971927Y-125982797D01*
X168972928Y-125973898D01*
X168974949Y-125971230D01*
X169171784Y-125777102D01*
X169180081Y-125773733D01*
X169188216Y-125777103D01*
G37*
%TD.AperFunction*%
%TD*%
%TA.AperFunction,Conductor*%
%TO.N,Net-(IC1-BATC)*%
G36*
X180963068Y-124797251D02*
G01*
X181162748Y-124996931D01*
X181166175Y-125005204D01*
X181164716Y-125010862D01*
X181067600Y-125186658D01*
X181060600Y-125192242D01*
X181057278Y-125192700D01*
X180780832Y-125190786D01*
X180772583Y-125187302D01*
X180769213Y-125179167D01*
X180768009Y-125005204D01*
X180767299Y-124902720D01*
X180770669Y-124894424D01*
X180773337Y-124892401D01*
X180949137Y-124795282D01*
X180958036Y-124794282D01*
X180963068Y-124797251D01*
G37*
%TD.AperFunction*%
%TD*%
%TA.AperFunction,Conductor*%
%TO.N,Net-(IC1-BATN)*%
G36*
X175694466Y-120738670D02*
G01*
X175696895Y-120740533D01*
X175899466Y-120943104D01*
X175902893Y-120951377D01*
X175902493Y-120954412D01*
X175802739Y-121325844D01*
X175797283Y-121332945D01*
X175791347Y-121334509D01*
X175320810Y-121330797D01*
X175312564Y-121327305D01*
X175309202Y-121319189D01*
X175305490Y-120848651D01*
X175308852Y-120840352D01*
X175314152Y-120837261D01*
X175685587Y-120737506D01*
X175694466Y-120738670D01*
G37*
%TD.AperFunction*%
%TD*%
%TA.AperFunction,Conductor*%
%TO.N,Net-(D1-K)*%
G36*
X172089167Y-123399213D02*
G01*
X172097416Y-123402697D01*
X172100786Y-123410832D01*
X172102700Y-123687278D01*
X172099330Y-123695575D01*
X172096658Y-123697600D01*
X171920862Y-123794716D01*
X171911963Y-123795717D01*
X171906931Y-123792748D01*
X171707251Y-123593068D01*
X171703824Y-123584795D01*
X171705283Y-123579137D01*
X171798261Y-123410832D01*
X171802400Y-123403340D01*
X171809399Y-123397757D01*
X171812719Y-123397299D01*
X172089167Y-123399213D01*
G37*
%TD.AperFunction*%
%TD*%
%TA.AperFunction,Conductor*%
%TO.N,Net-(IC2-ISET)*%
G36*
X177088610Y-127337558D02*
G01*
X177285506Y-127389209D01*
X177292638Y-127394623D01*
X177294236Y-127400526D01*
X177294236Y-127682919D01*
X177290809Y-127691192D01*
X177286052Y-127694078D01*
X177097062Y-127753615D01*
X177088141Y-127752833D01*
X177085386Y-127750841D01*
X176887272Y-127558050D01*
X176883733Y-127549824D01*
X176886936Y-127541621D01*
X177077151Y-127340829D01*
X177085328Y-127337180D01*
X177088610Y-127337558D01*
G37*
%TD.AperFunction*%
%TD*%
%TA.AperFunction,Conductor*%
%TO.N,Net-(IC1-BATN)*%
G36*
X180753068Y-128787251D02*
G01*
X180952748Y-128986931D01*
X180956175Y-128995204D01*
X180954716Y-129000862D01*
X180857600Y-129176658D01*
X180850600Y-129182242D01*
X180847278Y-129182700D01*
X180570832Y-129180786D01*
X180562583Y-129177302D01*
X180559213Y-129169167D01*
X180558009Y-128995204D01*
X180557299Y-128892720D01*
X180560669Y-128884424D01*
X180563337Y-128882401D01*
X180739137Y-128785282D01*
X180748036Y-128784282D01*
X180753068Y-128787251D01*
G37*
%TD.AperFunction*%
%TD*%
%TA.AperFunction,Conductor*%
%TO.N,Net-(IC1-BATP)*%
G36*
X167922427Y-124539191D02*
G01*
X167925216Y-124543653D01*
X167945665Y-124603052D01*
X167988795Y-124728329D01*
X167988248Y-124737267D01*
X167986296Y-124740110D01*
X167797875Y-124942539D01*
X167789730Y-124946259D01*
X167781444Y-124943227D01*
X167576546Y-124757076D01*
X167572726Y-124748976D01*
X167573024Y-124745738D01*
X167620375Y-124544780D01*
X167625608Y-124537514D01*
X167631763Y-124535764D01*
X167914154Y-124535764D01*
X167922427Y-124539191D01*
G37*
%TD.AperFunction*%
%TD*%
%TA.AperFunction,Conductor*%
%TO.N,Net-(IC1-BATP)*%
G36*
X171122101Y-122566928D02*
G01*
X171124773Y-122568953D01*
X171318896Y-122765784D01*
X171322266Y-122774081D01*
X171318896Y-122782216D01*
X171124773Y-122979046D01*
X171116524Y-122982530D01*
X171113202Y-122982072D01*
X170920223Y-122926438D01*
X170913223Y-122920854D01*
X170911764Y-122915196D01*
X170911764Y-122632803D01*
X170915191Y-122624530D01*
X170920221Y-122621561D01*
X171113203Y-122565927D01*
X171122101Y-122566928D01*
G37*
%TD.AperFunction*%
%TD*%
%TA.AperFunction,Conductor*%
%TO.N,Net-(IC2-ISET)*%
G36*
X179647296Y-122069191D02*
G01*
X179650141Y-122073819D01*
X179711486Y-122260902D01*
X179710807Y-122269831D01*
X179708833Y-122272624D01*
X179517973Y-122472643D01*
X179509782Y-122476263D01*
X179501541Y-122473135D01*
X179298915Y-122284739D01*
X179295190Y-122276596D01*
X179295531Y-122273332D01*
X179345282Y-122074621D01*
X179350616Y-122067429D01*
X179356632Y-122065764D01*
X179639023Y-122065764D01*
X179647296Y-122069191D01*
G37*
%TD.AperFunction*%
%TD*%
%TA.AperFunction,Conductor*%
%TO.N,Net-(IC1-BATN)*%
G36*
X180269564Y-128776546D02*
G01*
X180531533Y-128883039D01*
X180537907Y-128889329D01*
X180538792Y-128892975D01*
X180560105Y-129168433D01*
X180557327Y-129176946D01*
X180549443Y-129180993D01*
X180277365Y-129204394D01*
X180268828Y-129201689D01*
X180264710Y-129193796D01*
X180253508Y-129070528D01*
X180253460Y-129069469D01*
X180253460Y-128787386D01*
X180256887Y-128779113D01*
X180265160Y-128775686D01*
X180269564Y-128776546D01*
G37*
%TD.AperFunction*%
%TD*%
%TA.AperFunction,Conductor*%
%TO.N,Net-(IC1-BATP)*%
G36*
X172280208Y-121127101D02*
G01*
X172658197Y-121282914D01*
X172766204Y-121327437D01*
X172772547Y-121333758D01*
X172772562Y-121333795D01*
X172972897Y-121819789D01*
X172972882Y-121828744D01*
X172967156Y-121834790D01*
X172029991Y-122286017D01*
X172021050Y-122286518D01*
X172016642Y-122283748D01*
X171816251Y-122083357D01*
X171812824Y-122075084D01*
X171813982Y-122070008D01*
X171934458Y-121819789D01*
X172265210Y-121132841D01*
X172271886Y-121126876D01*
X172280208Y-121127101D01*
G37*
%TD.AperFunction*%
%TD*%
%TA.AperFunction,Conductor*%
%TO.N,Net-(IC2-BIAS)*%
G36*
X178648216Y-129647103D02*
G01*
X178845046Y-129841226D01*
X178848530Y-129849475D01*
X178848072Y-129852797D01*
X178792439Y-130045777D01*
X178786855Y-130052777D01*
X178781197Y-130054236D01*
X178498803Y-130054236D01*
X178490530Y-130050809D01*
X178487561Y-130045777D01*
X178431927Y-129852797D01*
X178432928Y-129843898D01*
X178434949Y-129841230D01*
X178631784Y-129647102D01*
X178640081Y-129643733D01*
X178648216Y-129647103D01*
G37*
%TD.AperFunction*%
%TD*%
%TA.AperFunction,Conductor*%
%TO.N,Net-(IC2-BIAS)*%
G36*
X178945575Y-125460669D02*
G01*
X178947600Y-125463341D01*
X179044716Y-125639137D01*
X179045717Y-125648036D01*
X179042748Y-125653068D01*
X178843068Y-125852748D01*
X178834795Y-125856175D01*
X178829137Y-125854716D01*
X178653341Y-125757600D01*
X178647757Y-125750600D01*
X178647299Y-125747278D01*
X178647995Y-125646843D01*
X178649213Y-125470831D01*
X178652697Y-125462583D01*
X178660831Y-125459213D01*
X178937278Y-125457299D01*
X178945575Y-125460669D01*
G37*
%TD.AperFunction*%
%TD*%
%TA.AperFunction,Conductor*%
%TO.N,Net-(IC1-BATP)*%
G36*
X173048022Y-127847304D02*
G01*
X173240091Y-128046129D01*
X173243374Y-128054460D01*
X173242820Y-128057822D01*
X173182602Y-128246100D01*
X173176818Y-128252936D01*
X173171458Y-128254236D01*
X172889067Y-128254236D01*
X172880794Y-128250809D01*
X172877738Y-128245457D01*
X172826798Y-128047883D01*
X172828050Y-128039016D01*
X172830106Y-128036443D01*
X173031590Y-127846910D01*
X173039964Y-127843738D01*
X173048022Y-127847304D01*
G37*
%TD.AperFunction*%
%TD*%
%TA.AperFunction,Conductor*%
%TO.N,Net-(IC1-BATP)*%
G36*
X171519068Y-122381251D02*
G01*
X171718748Y-122580931D01*
X171722175Y-122589204D01*
X171720716Y-122594862D01*
X171623600Y-122770658D01*
X171616600Y-122776242D01*
X171613278Y-122776700D01*
X171336832Y-122774786D01*
X171328583Y-122771302D01*
X171325213Y-122763167D01*
X171324009Y-122589204D01*
X171323299Y-122486720D01*
X171326669Y-122478424D01*
X171329337Y-122476401D01*
X171505137Y-122379282D01*
X171514036Y-122378282D01*
X171519068Y-122381251D01*
G37*
%TD.AperFunction*%
%TD*%
%TA.AperFunction,Conductor*%
%TO.N,Net-(IC1-BATP)*%
G36*
X167500990Y-127125256D02*
G01*
X167504924Y-127133300D01*
X167504927Y-127133338D01*
X167512378Y-127259660D01*
X167512398Y-127260349D01*
X167512398Y-127542140D01*
X167508971Y-127550413D01*
X167500698Y-127553840D01*
X167496025Y-127552866D01*
X167230393Y-127437132D01*
X167224177Y-127430686D01*
X167223381Y-127426992D01*
X167209578Y-127151542D01*
X167212586Y-127143109D01*
X167220533Y-127139281D01*
X167492520Y-127122350D01*
X167500990Y-127125256D01*
G37*
%TD.AperFunction*%
%TD*%
%TA.AperFunction,Conductor*%
%TO.N,Net-(IC1-BATN)*%
G36*
X167323068Y-128877251D02*
G01*
X167522748Y-129076931D01*
X167526175Y-129085204D01*
X167524716Y-129090862D01*
X167427600Y-129266658D01*
X167420600Y-129272242D01*
X167417278Y-129272700D01*
X167140832Y-129270786D01*
X167132583Y-129267302D01*
X167129213Y-129259167D01*
X167128009Y-129085204D01*
X167127299Y-128982720D01*
X167130669Y-128974424D01*
X167133337Y-128972401D01*
X167309137Y-128875282D01*
X167318036Y-128874282D01*
X167323068Y-128877251D01*
G37*
%TD.AperFunction*%
%TD*%
%TA.AperFunction,Conductor*%
%TO.N,Net-(D1-K)*%
G36*
X171000366Y-127975109D02*
G01*
X171175985Y-128062636D01*
X171181861Y-128069394D01*
X171182461Y-128072773D01*
X171190376Y-128349158D01*
X171187188Y-128357526D01*
X171179163Y-128361183D01*
X170902660Y-128372592D01*
X170894253Y-128369509D01*
X170892179Y-128366977D01*
X170886437Y-128357526D01*
X170785469Y-128191335D01*
X170784102Y-128182485D01*
X170787193Y-128176989D01*
X170986875Y-127977307D01*
X170995147Y-127973881D01*
X171000366Y-127975109D01*
G37*
%TD.AperFunction*%
%TD*%
%TA.AperFunction,Conductor*%
%TO.N,Net-(IC1-BATC)*%
G36*
X174046115Y-121339751D02*
G01*
X174046751Y-121340822D01*
X174265376Y-121757833D01*
X174266183Y-121766752D01*
X174263003Y-121771814D01*
X173954515Y-122060156D01*
X173946131Y-122063301D01*
X173938253Y-122059881D01*
X173735661Y-121857289D01*
X173733237Y-121853755D01*
X173628250Y-121616780D01*
X173628032Y-121607828D01*
X173632441Y-121602317D01*
X174029887Y-121336528D01*
X174038667Y-121334779D01*
X174046115Y-121339751D01*
G37*
%TD.AperFunction*%
%TD*%
%TA.AperFunction,Conductor*%
%TO.N,Net-(IC1-BATC)*%
G36*
X181651146Y-127395704D02*
G01*
X181893646Y-127464237D01*
X181900674Y-127469784D01*
X181901923Y-127473135D01*
X181958590Y-127748300D01*
X181956902Y-127757094D01*
X181949490Y-127762120D01*
X181949252Y-127762166D01*
X181676674Y-127812445D01*
X181667917Y-127810576D01*
X181663176Y-127803669D01*
X181636593Y-127692846D01*
X181636270Y-127690117D01*
X181636270Y-127406964D01*
X181639697Y-127398691D01*
X181647970Y-127395264D01*
X181651146Y-127395704D01*
G37*
%TD.AperFunction*%
%TD*%
%TA.AperFunction,Conductor*%
%TO.N,Net-(IC1-BATN)*%
G36*
X174934412Y-120737506D02*
G01*
X175305845Y-120837260D01*
X175312945Y-120842716D01*
X175314509Y-120848652D01*
X175310797Y-121319189D01*
X175307305Y-121327435D01*
X175299189Y-121330797D01*
X174828652Y-121334509D01*
X174820352Y-121331147D01*
X174817260Y-121325845D01*
X174717506Y-120954412D01*
X174718670Y-120945533D01*
X174720529Y-120943108D01*
X174923105Y-120740532D01*
X174931377Y-120737106D01*
X174934412Y-120737506D01*
G37*
%TD.AperFunction*%
%TD*%
%TA.AperFunction,NonConductor*%
G36*
X176867231Y-118640185D02*
G01*
X176912986Y-118692989D01*
X176922930Y-118762147D01*
X176893905Y-118825703D01*
X176887873Y-118832181D01*
X175463472Y-120256580D01*
X175407954Y-120288655D01*
X175342162Y-120306325D01*
X175326078Y-120306325D01*
X175312879Y-120310536D01*
X175277837Y-120306325D01*
X175212046Y-120288656D01*
X175156527Y-120256581D01*
X174524674Y-119624727D01*
X174524673Y-119624726D01*
X174524669Y-119624723D01*
X174418127Y-119553535D01*
X174299744Y-119504499D01*
X174299738Y-119504497D01*
X174174071Y-119479500D01*
X174174069Y-119479500D01*
X171185807Y-119479500D01*
X171118768Y-119459815D01*
X171098126Y-119443181D01*
X170487127Y-118832181D01*
X170453642Y-118770858D01*
X170458626Y-118701166D01*
X170500498Y-118645233D01*
X170565962Y-118620816D01*
X170574808Y-118620500D01*
X176800192Y-118620500D01*
X176867231Y-118640185D01*
G37*
%TD.AperFunction*%
%TA.AperFunction,NonConductor*%
G36*
X177836671Y-119825788D02*
G01*
X177892604Y-119867660D01*
X177917021Y-119933124D01*
X177916276Y-119958154D01*
X177912000Y-119990636D01*
X177912000Y-120269363D01*
X177927453Y-120386753D01*
X177927456Y-120386762D01*
X177958019Y-120460547D01*
X177965488Y-120530017D01*
X177934213Y-120592496D01*
X177874124Y-120628148D01*
X177843458Y-120632000D01*
X177348283Y-120632000D01*
X177320538Y-120623853D01*
X177292113Y-120618548D01*
X177285073Y-120613439D01*
X177281244Y-120612315D01*
X177263243Y-120598246D01*
X177261925Y-120597004D01*
X177217782Y-120552861D01*
X177208492Y-120546654D01*
X177200958Y-120539554D01*
X177188332Y-120517980D01*
X177172304Y-120498803D01*
X177170990Y-120488346D01*
X177165668Y-120479252D01*
X177166710Y-120454279D01*
X177163594Y-120429478D01*
X177168141Y-120419971D01*
X177168581Y-120409443D01*
X177182959Y-120388997D01*
X177193746Y-120366449D01*
X177198296Y-120361648D01*
X177705657Y-119854288D01*
X177766979Y-119820804D01*
X177836671Y-119825788D01*
G37*
%TD.AperFunction*%
%TA.AperFunction,NonConductor*%
G36*
X178939221Y-123047548D02*
G01*
X178965543Y-123067622D01*
X178999707Y-123101786D01*
X178999711Y-123101789D01*
X179130814Y-123189390D01*
X179130827Y-123189397D01*
X179248365Y-123238082D01*
X179276503Y-123249737D01*
X179380981Y-123270519D01*
X179397892Y-123273883D01*
X179459803Y-123306268D01*
X179494377Y-123366983D01*
X179490638Y-123436753D01*
X179449772Y-123493425D01*
X179384754Y-123519006D01*
X179373702Y-123519500D01*
X179200636Y-123519500D01*
X179083234Y-123534955D01*
X179082083Y-123535264D01*
X179079654Y-123535426D01*
X179075179Y-123536016D01*
X179075141Y-123535729D01*
X179073987Y-123535806D01*
X179069481Y-123537947D01*
X179054042Y-123537144D01*
X179034191Y-123538475D01*
X179021238Y-123536810D01*
X179016762Y-123534956D01*
X178899361Y-123519500D01*
X178886565Y-123519500D01*
X178878692Y-123518488D01*
X178853671Y-123507511D01*
X178827461Y-123499815D01*
X178822145Y-123493680D01*
X178814709Y-123490418D01*
X178799594Y-123467654D01*
X178781706Y-123447011D01*
X178779669Y-123437647D01*
X178776059Y-123432211D01*
X178775879Y-123420228D01*
X178770500Y-123395500D01*
X178770500Y-123251155D01*
X178756245Y-123179495D01*
X178762472Y-123109904D01*
X178805334Y-123054726D01*
X178871224Y-123031481D01*
X178939221Y-123047548D01*
G37*
%TD.AperFunction*%
%TA.AperFunction,NonConductor*%
G36*
X180436234Y-120568680D02*
G01*
X180568181Y-120700627D01*
X180601666Y-120761950D01*
X180604500Y-120788308D01*
X180604500Y-122130015D01*
X180615000Y-122232795D01*
X180615001Y-122232796D01*
X180670186Y-122399335D01*
X180670187Y-122399337D01*
X180762286Y-122548651D01*
X180762289Y-122548655D01*
X180886344Y-122672710D01*
X180886348Y-122672713D01*
X181035662Y-122764812D01*
X181035664Y-122764813D01*
X181035666Y-122764814D01*
X181202203Y-122819999D01*
X181304992Y-122830500D01*
X181375500Y-122830500D01*
X181442539Y-122850185D01*
X181488294Y-122902989D01*
X181499500Y-122954500D01*
X181499500Y-123395500D01*
X181479815Y-123462539D01*
X181427011Y-123508294D01*
X181375501Y-123519500D01*
X181218136Y-123519500D01*
X181100734Y-123534955D01*
X181099583Y-123535264D01*
X181098391Y-123535264D01*
X181092679Y-123536016D01*
X181092580Y-123535264D01*
X181042419Y-123535264D01*
X181042320Y-123536017D01*
X181036607Y-123535264D01*
X181035417Y-123535265D01*
X181034265Y-123534956D01*
X180916861Y-123519500D01*
X180403136Y-123519500D01*
X180285746Y-123534953D01*
X180285737Y-123534956D01*
X180249419Y-123550000D01*
X180229669Y-123558181D01*
X180225130Y-123560061D01*
X180216952Y-123561687D01*
X180212612Y-123564477D01*
X180177677Y-123569500D01*
X179939823Y-123569500D01*
X179892370Y-123560061D01*
X179887831Y-123558181D01*
X179831762Y-123534956D01*
X179831760Y-123534955D01*
X179714362Y-123519500D01*
X179646301Y-123519500D01*
X179579262Y-123499815D01*
X179533507Y-123447011D01*
X179523563Y-123377853D01*
X179552588Y-123314297D01*
X179611366Y-123276523D01*
X179622110Y-123273883D01*
X179675306Y-123263301D01*
X179743497Y-123249737D01*
X179889179Y-123189394D01*
X180020289Y-123101789D01*
X180131789Y-122990289D01*
X180219394Y-122859179D01*
X180226632Y-122841706D01*
X180235744Y-122819707D01*
X180279737Y-122713497D01*
X180310500Y-122558842D01*
X180310500Y-122401158D01*
X180310500Y-122401155D01*
X180310499Y-122401153D01*
X180307678Y-122386970D01*
X180279737Y-122246503D01*
X180274060Y-122232797D01*
X180219397Y-122100827D01*
X180219389Y-122100813D01*
X180192184Y-122060099D01*
X180173025Y-122031426D01*
X180158299Y-122001167D01*
X180154169Y-121988569D01*
X180148000Y-121949944D01*
X180148000Y-121894225D01*
X180167685Y-121827186D01*
X180173614Y-121818751D01*
X180239536Y-121732841D01*
X180300044Y-121586762D01*
X180315500Y-121469361D01*
X180315499Y-121190640D01*
X180315499Y-121190636D01*
X180300046Y-121073246D01*
X180300044Y-121073241D01*
X180300044Y-121073238D01*
X180239536Y-120927159D01*
X180221123Y-120903162D01*
X180212880Y-120881841D01*
X180200523Y-120862612D01*
X180197606Y-120842330D01*
X180195930Y-120837993D01*
X180195500Y-120827677D01*
X180195500Y-120694225D01*
X180215185Y-120627186D01*
X180221123Y-120618740D01*
X180250179Y-120580873D01*
X180306603Y-120539673D01*
X180376349Y-120535517D01*
X180436234Y-120568680D01*
G37*
%TD.AperFunction*%
%TA.AperFunction,NonConductor*%
G36*
X188842539Y-118640185D02*
G01*
X188888294Y-118692989D01*
X188899500Y-118744500D01*
X188899500Y-123456716D01*
X188879815Y-123523755D01*
X188827011Y-123569510D01*
X188757853Y-123579454D01*
X188736497Y-123574422D01*
X188662799Y-123550001D01*
X188662795Y-123550000D01*
X188560016Y-123539500D01*
X188560009Y-123539500D01*
X186684500Y-123539500D01*
X186617461Y-123519815D01*
X186571706Y-123467011D01*
X186560500Y-123415500D01*
X186560500Y-122954500D01*
X186580185Y-122887461D01*
X186632989Y-122841706D01*
X186684500Y-122830500D01*
X186955003Y-122830500D01*
X186955008Y-122830500D01*
X187057797Y-122819999D01*
X187224334Y-122764814D01*
X187373655Y-122672711D01*
X187497711Y-122548655D01*
X187589814Y-122399334D01*
X187644999Y-122232797D01*
X187655500Y-122130008D01*
X187655500Y-120229992D01*
X187644999Y-120127203D01*
X187589814Y-119960666D01*
X187540887Y-119881344D01*
X187497713Y-119811348D01*
X187497710Y-119811344D01*
X187373655Y-119687289D01*
X187373651Y-119687286D01*
X187224337Y-119595187D01*
X187224335Y-119595186D01*
X187141065Y-119567593D01*
X187057797Y-119540001D01*
X187057795Y-119540000D01*
X186955015Y-119529500D01*
X186955008Y-119529500D01*
X185629992Y-119529500D01*
X185629989Y-119529500D01*
X185629966Y-119529501D01*
X185626856Y-119529819D01*
X185558165Y-119517042D01*
X185526587Y-119494141D01*
X184864627Y-118832181D01*
X184831142Y-118770858D01*
X184836126Y-118701166D01*
X184877998Y-118645233D01*
X184943462Y-118620816D01*
X184952308Y-118620500D01*
X188775500Y-118620500D01*
X188842539Y-118640185D01*
G37*
%TD.AperFunction*%
%TA.AperFunction,NonConductor*%
G36*
X183936731Y-119748185D02*
G01*
X183957373Y-119764819D01*
X184893181Y-120700627D01*
X184926666Y-120761950D01*
X184929500Y-120788308D01*
X184929500Y-122130015D01*
X184940000Y-122232795D01*
X184940001Y-122232796D01*
X184995186Y-122399335D01*
X184995187Y-122399337D01*
X185087286Y-122548651D01*
X185087289Y-122548655D01*
X185211345Y-122672711D01*
X185211352Y-122672715D01*
X185212404Y-122673547D01*
X185212945Y-122674311D01*
X185216452Y-122677818D01*
X185215852Y-122678417D01*
X185252785Y-122730566D01*
X185259500Y-122770819D01*
X185259500Y-123415500D01*
X185239815Y-123482539D01*
X185187011Y-123528294D01*
X185135500Y-123539500D01*
X183259998Y-123539500D01*
X183259981Y-123539501D01*
X183157203Y-123550000D01*
X183157200Y-123550001D01*
X182990668Y-123605185D01*
X182990655Y-123605191D01*
X182989588Y-123605850D01*
X182988755Y-123606077D01*
X182984118Y-123608240D01*
X182983748Y-123607447D01*
X182922194Y-123624285D01*
X182855532Y-123603356D01*
X182810767Y-123549711D01*
X182800500Y-123500306D01*
X182800500Y-122887105D01*
X182820185Y-122820066D01*
X182872989Y-122774311D01*
X182885489Y-122769401D01*
X182899334Y-122764814D01*
X183048655Y-122672711D01*
X183172711Y-122548655D01*
X183264814Y-122399334D01*
X183319999Y-122232797D01*
X183330500Y-122130008D01*
X183330500Y-120229992D01*
X183319999Y-120127203D01*
X183264814Y-119960666D01*
X183238249Y-119917597D01*
X183219808Y-119850205D01*
X183240730Y-119783541D01*
X183294372Y-119738772D01*
X183343787Y-119728500D01*
X183869692Y-119728500D01*
X183936731Y-119748185D01*
G37*
%TD.AperFunction*%
%TA.AperFunction,NonConductor*%
G36*
X178113944Y-121939443D02*
G01*
X178136738Y-121941351D01*
X178154576Y-121951374D01*
X178154600Y-121951381D01*
X178155124Y-121950474D01*
X178158863Y-121952633D01*
X178159040Y-121952685D01*
X178159437Y-121952964D01*
X178162157Y-121954534D01*
X178162159Y-121954536D01*
X178162160Y-121954536D01*
X178162163Y-121954538D01*
X178235198Y-121984790D01*
X178308238Y-122015044D01*
X178425639Y-122030500D01*
X178601861Y-122030499D01*
X178613504Y-122030499D01*
X178613506Y-122030500D01*
X178644158Y-122030500D01*
X178711197Y-122050186D01*
X178756951Y-122102991D01*
X178762365Y-122140662D01*
X178766893Y-122172147D01*
X178758716Y-122201952D01*
X178740264Y-122246498D01*
X178740261Y-122246510D01*
X178709500Y-122401153D01*
X178709500Y-122558846D01*
X178723754Y-122630505D01*
X178717527Y-122700096D01*
X178674664Y-122755274D01*
X178608774Y-122778518D01*
X178540777Y-122762450D01*
X178514456Y-122742377D01*
X178480292Y-122708213D01*
X178480288Y-122708210D01*
X178349185Y-122620609D01*
X178349172Y-122620602D01*
X178203501Y-122560264D01*
X178203489Y-122560261D01*
X178048845Y-122529500D01*
X178048842Y-122529500D01*
X177891158Y-122529500D01*
X177891155Y-122529500D01*
X177736510Y-122560261D01*
X177736498Y-122560264D01*
X177590827Y-122620602D01*
X177590814Y-122620609D01*
X177459711Y-122708210D01*
X177459707Y-122708213D01*
X177348213Y-122819707D01*
X177348210Y-122819711D01*
X177260609Y-122950814D01*
X177260602Y-122950827D01*
X177200263Y-123096500D01*
X177200262Y-123096505D01*
X177189692Y-123149640D01*
X177189044Y-123151411D01*
X177189110Y-123152399D01*
X177176614Y-123185407D01*
X177162828Y-123210362D01*
X177141970Y-123238082D01*
X176821871Y-123558182D01*
X176760550Y-123591666D01*
X176734192Y-123594500D01*
X175369984Y-123594500D01*
X175267204Y-123605000D01*
X175267203Y-123605001D01*
X175100664Y-123660186D01*
X175100662Y-123660187D01*
X174951348Y-123752286D01*
X174951344Y-123752289D01*
X174827288Y-123876345D01*
X174780538Y-123952139D01*
X174728590Y-123998863D01*
X174659627Y-124010084D01*
X174595545Y-123982240D01*
X174569462Y-123952139D01*
X174522711Y-123876345D01*
X174398655Y-123752289D01*
X174398651Y-123752286D01*
X174249337Y-123660187D01*
X174249335Y-123660186D01*
X174140992Y-123624285D01*
X174082797Y-123605001D01*
X174082795Y-123605000D01*
X173980015Y-123594500D01*
X173980008Y-123594500D01*
X173804500Y-123594500D01*
X173737461Y-123574815D01*
X173691706Y-123522011D01*
X173680500Y-123470500D01*
X173680500Y-123092807D01*
X173700185Y-123025768D01*
X173716815Y-123005130D01*
X174268149Y-122453795D01*
X174284903Y-122439766D01*
X174299695Y-122429454D01*
X174553790Y-122191952D01*
X174569551Y-122179455D01*
X174606111Y-122155027D01*
X174672783Y-122134150D01*
X174740164Y-122152633D01*
X174743858Y-122155007D01*
X174836086Y-122216632D01*
X174836088Y-122216633D01*
X174836092Y-122216635D01*
X175018160Y-122292049D01*
X175018165Y-122292051D01*
X175018169Y-122292051D01*
X175018170Y-122292052D01*
X175211456Y-122330500D01*
X175211459Y-122330500D01*
X175408543Y-122330500D01*
X175582198Y-122295957D01*
X175601835Y-122292051D01*
X175783914Y-122216632D01*
X175876109Y-122155029D01*
X175942786Y-122134151D01*
X176010166Y-122152635D01*
X176013891Y-122155029D01*
X176084116Y-122201952D01*
X176106086Y-122216632D01*
X176106088Y-122216633D01*
X176106092Y-122216635D01*
X176288160Y-122292049D01*
X176288165Y-122292051D01*
X176288169Y-122292051D01*
X176288170Y-122292052D01*
X176481456Y-122330500D01*
X176481459Y-122330500D01*
X176678543Y-122330500D01*
X176852198Y-122295957D01*
X176871835Y-122292051D01*
X177053914Y-122216632D01*
X177217782Y-122107139D01*
X177274735Y-122050186D01*
X177355603Y-121969319D01*
X177416926Y-121935834D01*
X177443284Y-121933000D01*
X178092001Y-121933000D01*
X178113944Y-121939443D01*
G37*
%TD.AperFunction*%
%TA.AperFunction,NonConductor*%
G36*
X168989730Y-118640185D02*
G01*
X169035485Y-118692989D01*
X169045429Y-118762147D01*
X169016404Y-118825703D01*
X169010372Y-118832181D01*
X168157794Y-119684758D01*
X168096471Y-119718243D01*
X168026779Y-119713259D01*
X168005015Y-119702615D01*
X167944339Y-119665188D01*
X167944332Y-119665185D01*
X167822225Y-119624723D01*
X167777797Y-119610001D01*
X167777795Y-119610000D01*
X167675015Y-119599500D01*
X167675008Y-119599500D01*
X166349992Y-119599500D01*
X166349984Y-119599500D01*
X166247204Y-119610000D01*
X166247203Y-119610001D01*
X166080664Y-119665186D01*
X166080662Y-119665187D01*
X165931348Y-119757286D01*
X165931344Y-119757289D01*
X165807289Y-119881344D01*
X165807286Y-119881348D01*
X165715187Y-120030662D01*
X165715186Y-120030664D01*
X165660001Y-120197203D01*
X165660000Y-120197204D01*
X165649500Y-120299984D01*
X165649500Y-122200020D01*
X165655611Y-122259836D01*
X165655253Y-122261758D01*
X165655937Y-122263591D01*
X165648895Y-122295957D01*
X165642841Y-122328529D01*
X165641368Y-122330559D01*
X165641085Y-122331864D01*
X165619934Y-122360118D01*
X165593082Y-122386970D01*
X165565362Y-122407828D01*
X165540407Y-122421614D01*
X165504640Y-122434692D01*
X165451505Y-122445262D01*
X165451500Y-122445263D01*
X165305827Y-122505602D01*
X165305814Y-122505609D01*
X165174711Y-122593210D01*
X165174707Y-122593213D01*
X165063213Y-122704707D01*
X165063210Y-122704711D01*
X164975609Y-122835814D01*
X164975602Y-122835827D01*
X164915264Y-122981498D01*
X164915261Y-122981510D01*
X164884500Y-123136153D01*
X164884500Y-123293846D01*
X164915261Y-123448489D01*
X164915264Y-123448501D01*
X164975602Y-123594172D01*
X164975606Y-123594179D01*
X164989591Y-123615110D01*
X165010468Y-123681788D01*
X164991983Y-123749168D01*
X164940004Y-123795857D01*
X164886488Y-123808000D01*
X163462000Y-123808000D01*
X163394961Y-123788315D01*
X163349206Y-123735511D01*
X163338000Y-123684000D01*
X163338000Y-123013704D01*
X163357685Y-122946665D01*
X163410489Y-122900910D01*
X163449401Y-122890346D01*
X163449848Y-122890300D01*
X163452797Y-122889999D01*
X163619334Y-122834814D01*
X163768655Y-122742711D01*
X163892711Y-122618655D01*
X163984814Y-122469334D01*
X164039999Y-122302797D01*
X164050500Y-122200008D01*
X164050500Y-120299992D01*
X164039999Y-120197203D01*
X163984814Y-120030666D01*
X163892711Y-119881345D01*
X163768655Y-119757289D01*
X163768651Y-119757286D01*
X163619337Y-119665187D01*
X163619335Y-119665186D01*
X163497225Y-119624723D01*
X163452797Y-119610001D01*
X163452795Y-119610000D01*
X163350015Y-119599500D01*
X163350008Y-119599500D01*
X162024992Y-119599500D01*
X162024984Y-119599500D01*
X161922204Y-119610000D01*
X161922203Y-119610001D01*
X161755664Y-119665186D01*
X161755662Y-119665187D01*
X161606348Y-119757286D01*
X161606344Y-119757289D01*
X161482289Y-119881344D01*
X161482286Y-119881348D01*
X161390187Y-120030662D01*
X161390186Y-120030664D01*
X161335001Y-120197203D01*
X161335000Y-120197204D01*
X161324500Y-120299984D01*
X161324500Y-122200015D01*
X161335000Y-122302795D01*
X161335001Y-122302797D01*
X161344633Y-122331864D01*
X161390186Y-122469335D01*
X161390187Y-122469337D01*
X161482286Y-122618651D01*
X161482289Y-122618655D01*
X161606344Y-122742710D01*
X161606348Y-122742713D01*
X161755662Y-122834812D01*
X161755664Y-122834813D01*
X161755666Y-122834814D01*
X161922203Y-122889999D01*
X161925027Y-122890287D01*
X161925599Y-122890346D01*
X161927558Y-122891145D01*
X161928827Y-122891417D01*
X161928778Y-122891643D01*
X161990291Y-122916740D01*
X162030444Y-122973919D01*
X162037000Y-123013704D01*
X162037000Y-123684000D01*
X162017315Y-123751039D01*
X161964511Y-123796794D01*
X161913000Y-123808000D01*
X160769998Y-123808000D01*
X160769981Y-123808001D01*
X160667203Y-123818500D01*
X160667200Y-123818501D01*
X160500668Y-123873685D01*
X160500663Y-123873687D01*
X160351342Y-123965789D01*
X160222181Y-124094951D01*
X160160858Y-124128436D01*
X160091166Y-124123452D01*
X160035233Y-124081580D01*
X160010816Y-124016116D01*
X160010500Y-124007270D01*
X160010500Y-118744500D01*
X160030185Y-118677461D01*
X160082989Y-118631706D01*
X160134500Y-118620500D01*
X168922691Y-118620500D01*
X168989730Y-118640185D01*
G37*
%TD.AperFunction*%
%TA.AperFunction,NonConductor*%
G36*
X167709731Y-122920185D02*
G01*
X167755486Y-122972989D01*
X167765430Y-123042147D01*
X167736405Y-123105703D01*
X167730373Y-123112181D01*
X167312160Y-123530393D01*
X167271935Y-123557272D01*
X167252158Y-123565464D01*
X167126719Y-123661716D01*
X167030463Y-123787160D01*
X166969956Y-123933237D01*
X166969955Y-123933239D01*
X166954500Y-124050638D01*
X166954500Y-124224246D01*
X166934815Y-124291285D01*
X166882011Y-124337040D01*
X166812853Y-124346984D01*
X166749297Y-124317959D01*
X166712794Y-124263249D01*
X166704815Y-124239170D01*
X166704814Y-124239166D01*
X166612712Y-124089844D01*
X166488656Y-123965788D01*
X166488655Y-123965787D01*
X166355519Y-123883669D01*
X166308794Y-123831721D01*
X166297571Y-123762759D01*
X166317513Y-123709239D01*
X166394394Y-123594179D01*
X166454737Y-123448497D01*
X166465308Y-123395348D01*
X166465954Y-123393581D01*
X166465889Y-123392591D01*
X166478381Y-123359592D01*
X166492168Y-123334636D01*
X166513018Y-123306926D01*
X166883127Y-122936819D01*
X166944450Y-122903334D01*
X166970808Y-122900500D01*
X167642692Y-122900500D01*
X167709731Y-122920185D01*
G37*
%TD.AperFunction*%
%TA.AperFunction,NonConductor*%
G36*
X179840133Y-124906357D02*
G01*
X179897789Y-124907726D01*
X179955655Y-124946885D01*
X179983163Y-125011112D01*
X179981658Y-125050032D01*
X179969500Y-125111153D01*
X179969500Y-125268846D01*
X180000261Y-125423489D01*
X180000264Y-125423501D01*
X180060602Y-125569172D01*
X180060609Y-125569185D01*
X180147043Y-125698542D01*
X180167921Y-125765220D01*
X180149436Y-125832600D01*
X180097458Y-125879290D01*
X180076807Y-125886998D01*
X180062248Y-125891000D01*
X180054431Y-125891000D01*
X179928756Y-125915999D01*
X179879721Y-125936310D01*
X179844814Y-125950768D01*
X179837366Y-125952816D01*
X179809850Y-125952338D01*
X179782484Y-125955281D01*
X179775412Y-125951741D01*
X179767507Y-125951604D01*
X179744616Y-125936325D01*
X179720005Y-125924006D01*
X179715970Y-125917206D01*
X179709393Y-125912816D01*
X179698395Y-125887585D01*
X179684352Y-125863917D01*
X179682843Y-125851906D01*
X179681475Y-125848767D01*
X179682022Y-125845374D01*
X179680500Y-125833251D01*
X179680500Y-125775928D01*
X179655502Y-125650261D01*
X179655501Y-125650260D01*
X179655501Y-125650256D01*
X179606465Y-125531873D01*
X179606464Y-125531872D01*
X179606461Y-125531866D01*
X179535277Y-125425332D01*
X179533434Y-125423489D01*
X179478021Y-125368076D01*
X179457167Y-125340359D01*
X179443385Y-125315411D01*
X179430307Y-125279642D01*
X179419738Y-125226510D01*
X179419737Y-125226503D01*
X179403546Y-125187416D01*
X179364005Y-125091951D01*
X179356536Y-125022481D01*
X179387812Y-124960002D01*
X179447901Y-124924351D01*
X179478566Y-124920499D01*
X179714363Y-124920499D01*
X179839821Y-124903984D01*
X179840133Y-124906357D01*
G37*
%TD.AperFunction*%
%TA.AperFunction,NonConductor*%
G36*
X182628875Y-125865082D02*
G01*
X182684809Y-125906953D01*
X182691078Y-125916162D01*
X182717288Y-125958656D01*
X182841344Y-126082712D01*
X182969018Y-126161462D01*
X183015742Y-126213409D01*
X183026965Y-126282371D01*
X182999121Y-126346454D01*
X182941053Y-126385310D01*
X182903921Y-126391000D01*
X182299808Y-126391000D01*
X182232769Y-126371315D01*
X182187014Y-126318511D01*
X182177070Y-126249353D01*
X182206095Y-126185797D01*
X182212117Y-126179328D01*
X182497864Y-125893580D01*
X182559183Y-125860098D01*
X182628875Y-125865082D01*
G37*
%TD.AperFunction*%
%TA.AperFunction,NonConductor*%
G36*
X184984921Y-126245450D02*
G01*
X185002497Y-126245377D01*
X185017750Y-126255090D01*
X185035098Y-126260184D01*
X185046606Y-126273465D01*
X185061432Y-126282906D01*
X185069012Y-126299323D01*
X185080853Y-126312988D01*
X185083354Y-126330383D01*
X185090722Y-126346340D01*
X185088223Y-126364247D01*
X185090797Y-126382146D01*
X185083495Y-126398134D01*
X185081067Y-126415539D01*
X185062110Y-126445310D01*
X185059046Y-126448875D01*
X184978211Y-126529711D01*
X184938409Y-126589278D01*
X184933519Y-126594970D01*
X184910245Y-126610064D01*
X184888957Y-126627855D01*
X184881339Y-126628811D01*
X184874899Y-126632989D01*
X184847157Y-126633104D01*
X184819632Y-126636562D01*
X184812707Y-126633248D01*
X184805030Y-126633281D01*
X184771968Y-126613757D01*
X184756605Y-126606407D01*
X184754930Y-126603696D01*
X184751787Y-126601840D01*
X184686173Y-126536226D01*
X184686169Y-126536223D01*
X184583466Y-126467600D01*
X184538662Y-126413990D01*
X184529955Y-126344665D01*
X184560109Y-126281637D01*
X184619552Y-126244917D01*
X184652355Y-126240499D01*
X184968059Y-126240499D01*
X184984921Y-126245450D01*
G37*
%TD.AperFunction*%
%TA.AperFunction,NonConductor*%
G36*
X188866365Y-126238906D02*
G01*
X188897559Y-126301426D01*
X188899500Y-126323283D01*
X188899500Y-127956716D01*
X188879815Y-128023755D01*
X188827011Y-128069510D01*
X188757853Y-128079454D01*
X188736497Y-128074422D01*
X188662799Y-128050001D01*
X188662795Y-128050000D01*
X188560016Y-128039500D01*
X188560009Y-128039500D01*
X186082974Y-128039500D01*
X186057472Y-128032011D01*
X186031177Y-128028163D01*
X186024469Y-128022320D01*
X186015935Y-128019815D01*
X185998533Y-127999732D01*
X185978489Y-127982275D01*
X185974226Y-127971681D01*
X185970180Y-127967011D01*
X185963909Y-127950133D01*
X185962404Y-127944959D01*
X185955501Y-127910256D01*
X185944784Y-127884383D01*
X185942885Y-127877854D01*
X185942956Y-127849449D01*
X185939920Y-127821207D01*
X185943044Y-127814964D01*
X185943062Y-127807984D01*
X185958479Y-127784126D01*
X185971193Y-127758727D01*
X185979417Y-127751728D01*
X185980985Y-127749302D01*
X185983732Y-127748055D01*
X185993054Y-127740122D01*
X186110289Y-127661789D01*
X186221789Y-127550289D01*
X186309394Y-127419179D01*
X186369737Y-127273497D01*
X186380307Y-127220353D01*
X186380953Y-127218586D01*
X186380888Y-127217598D01*
X186393383Y-127184590D01*
X186413684Y-127147839D01*
X186419105Y-127138936D01*
X186486465Y-127038127D01*
X186535501Y-126919744D01*
X186539486Y-126899711D01*
X186541218Y-126891003D01*
X186541218Y-126891001D01*
X186560500Y-126794069D01*
X186560500Y-126364499D01*
X186580185Y-126297460D01*
X186632989Y-126251705D01*
X186684500Y-126240499D01*
X188560002Y-126240499D01*
X188560008Y-126240499D01*
X188662797Y-126229999D01*
X188736497Y-126205576D01*
X188806323Y-126203175D01*
X188866365Y-126238906D01*
G37*
%TD.AperFunction*%
%TA.AperFunction,NonConductor*%
G36*
X184017731Y-127711685D02*
G01*
X184038373Y-127728319D01*
X184137873Y-127827819D01*
X184171358Y-127889142D01*
X184166374Y-127958834D01*
X184124502Y-128014767D01*
X184059038Y-128039184D01*
X184050192Y-128039500D01*
X183259998Y-128039500D01*
X183259980Y-128039501D01*
X183157203Y-128050000D01*
X183157200Y-128050001D01*
X182990668Y-128105185D01*
X182990659Y-128105189D01*
X182904483Y-128158343D01*
X182837090Y-128176783D01*
X182770427Y-128155860D01*
X182725658Y-128102218D01*
X182716997Y-128032887D01*
X182717578Y-128029598D01*
X182719957Y-128017106D01*
X182729737Y-127993497D01*
X182760500Y-127838842D01*
X182760500Y-127804294D01*
X182762691Y-127792794D01*
X182773507Y-127771700D01*
X182780185Y-127748961D01*
X182789154Y-127741188D01*
X182794573Y-127730623D01*
X182815079Y-127718724D01*
X182832989Y-127703206D01*
X182847126Y-127700130D01*
X182855007Y-127695558D01*
X182865872Y-127696052D01*
X182884500Y-127692000D01*
X183950692Y-127692000D01*
X184017731Y-127711685D01*
G37*
%TD.AperFunction*%
%TA.AperFunction,NonConductor*%
G36*
X171268823Y-125608742D02*
G01*
X171271381Y-125608104D01*
X171302162Y-125618531D01*
X171333335Y-125627685D01*
X171335060Y-125629676D01*
X171337557Y-125630522D01*
X171357816Y-125655937D01*
X171379090Y-125680489D01*
X171379969Y-125683730D01*
X171381108Y-125685158D01*
X171389654Y-125719401D01*
X171390000Y-125722793D01*
X171390001Y-125722796D01*
X171445186Y-125889335D01*
X171445187Y-125889337D01*
X171537286Y-126038651D01*
X171537289Y-126038655D01*
X171661344Y-126162710D01*
X171661348Y-126162713D01*
X171810662Y-126254812D01*
X171810664Y-126254813D01*
X171810666Y-126254814D01*
X171977203Y-126309999D01*
X172079992Y-126320500D01*
X172079997Y-126320500D01*
X173980003Y-126320500D01*
X173980008Y-126320500D01*
X174082797Y-126309999D01*
X174249334Y-126254814D01*
X174398655Y-126162711D01*
X174522711Y-126038655D01*
X174549655Y-125994970D01*
X174569462Y-125962861D01*
X174621410Y-125916136D01*
X174690372Y-125904915D01*
X174754454Y-125932758D01*
X174780538Y-125962861D01*
X174827286Y-126038651D01*
X174827289Y-126038655D01*
X174951344Y-126162710D01*
X174951348Y-126162713D01*
X175100662Y-126254812D01*
X175100664Y-126254813D01*
X175100666Y-126254814D01*
X175267203Y-126309999D01*
X175369992Y-126320500D01*
X177046500Y-126320500D01*
X177113539Y-126340185D01*
X177159294Y-126392989D01*
X177170500Y-126444500D01*
X177170500Y-126640506D01*
X177150815Y-126707545D01*
X177098011Y-126753300D01*
X177028853Y-126763244D01*
X177022310Y-126762124D01*
X176958842Y-126749500D01*
X176801158Y-126749500D01*
X176801155Y-126749500D01*
X176646510Y-126780261D01*
X176646498Y-126780264D01*
X176500827Y-126840602D01*
X176500814Y-126840609D01*
X176369711Y-126928210D01*
X176369707Y-126928213D01*
X176258213Y-127039707D01*
X176258210Y-127039711D01*
X176170609Y-127170814D01*
X176170602Y-127170827D01*
X176110264Y-127316498D01*
X176110261Y-127316510D01*
X176079500Y-127471153D01*
X176079500Y-127628846D01*
X176107838Y-127771309D01*
X176101611Y-127840900D01*
X176058748Y-127896078D01*
X175992858Y-127919322D01*
X175986221Y-127919500D01*
X175369984Y-127919500D01*
X175267204Y-127930000D01*
X175267203Y-127930001D01*
X175100664Y-127985186D01*
X175100662Y-127985187D01*
X174951348Y-128077286D01*
X174951344Y-128077289D01*
X174827288Y-128201345D01*
X174780538Y-128277139D01*
X174728590Y-128323863D01*
X174659627Y-128335084D01*
X174595545Y-128307240D01*
X174569462Y-128277139D01*
X174522711Y-128201345D01*
X174398655Y-128077289D01*
X174398651Y-128077286D01*
X174249337Y-127985187D01*
X174249335Y-127985186D01*
X174143551Y-127950133D01*
X174082797Y-127930001D01*
X174082795Y-127930000D01*
X173980015Y-127919500D01*
X173980008Y-127919500D01*
X173964500Y-127919500D01*
X173897461Y-127899815D01*
X173851706Y-127847011D01*
X173840500Y-127795500D01*
X173840500Y-127761155D01*
X173840499Y-127761153D01*
X173840016Y-127758727D01*
X173809737Y-127606503D01*
X173786452Y-127550288D01*
X173749397Y-127460827D01*
X173749390Y-127460814D01*
X173661789Y-127329711D01*
X173661786Y-127329707D01*
X173550292Y-127218213D01*
X173550288Y-127218210D01*
X173419185Y-127130609D01*
X173419172Y-127130602D01*
X173273501Y-127070264D01*
X173273489Y-127070261D01*
X173118845Y-127039500D01*
X173118842Y-127039500D01*
X172961158Y-127039500D01*
X172961155Y-127039500D01*
X172806510Y-127070261D01*
X172806498Y-127070264D01*
X172660827Y-127130602D01*
X172660814Y-127130609D01*
X172529711Y-127218210D01*
X172529707Y-127218213D01*
X172418213Y-127329707D01*
X172418210Y-127329711D01*
X172330609Y-127460814D01*
X172330602Y-127460827D01*
X172270264Y-127606498D01*
X172270261Y-127606510D01*
X172239500Y-127761153D01*
X172239500Y-127795500D01*
X172238209Y-127799894D01*
X172239182Y-127804370D01*
X172228455Y-127833111D01*
X172219815Y-127862539D01*
X172216355Y-127865537D01*
X172214753Y-127869830D01*
X172190184Y-127888213D01*
X172167011Y-127908294D01*
X172161454Y-127909711D01*
X172158811Y-127911690D01*
X172141386Y-127914832D01*
X172124322Y-127919186D01*
X172119920Y-127919500D01*
X172079992Y-127919500D01*
X171987632Y-127928935D01*
X171985719Y-127929072D01*
X171953346Y-127922023D01*
X171920806Y-127915974D01*
X171919373Y-127914626D01*
X171917449Y-127914207D01*
X171894034Y-127890783D01*
X171869921Y-127868094D01*
X171869444Y-127866183D01*
X171868053Y-127864792D01*
X171861023Y-127832445D01*
X171853001Y-127800304D01*
X171853523Y-127797933D01*
X171853215Y-127796516D01*
X171854729Y-127792456D01*
X171862336Y-127757933D01*
X171909737Y-127643497D01*
X171940500Y-127488842D01*
X171940500Y-127331158D01*
X171940500Y-127331155D01*
X171940499Y-127331153D01*
X171930542Y-127281095D01*
X171909737Y-127176503D01*
X171907386Y-127170827D01*
X171849397Y-127030827D01*
X171849390Y-127030814D01*
X171761789Y-126899711D01*
X171761786Y-126899707D01*
X171650292Y-126788213D01*
X171650288Y-126788210D01*
X171519185Y-126700609D01*
X171519172Y-126700602D01*
X171373501Y-126640264D01*
X171373489Y-126640261D01*
X171218845Y-126609500D01*
X171218842Y-126609500D01*
X171094142Y-126609500D01*
X171027103Y-126589815D01*
X170981348Y-126537011D01*
X170977960Y-126528833D01*
X170973795Y-126517667D01*
X170973794Y-126517666D01*
X170887547Y-126402455D01*
X170887544Y-126402452D01*
X170772335Y-126316206D01*
X170772328Y-126316202D01*
X170637482Y-126265908D01*
X170637483Y-126265908D01*
X170577883Y-126259501D01*
X170577881Y-126259500D01*
X170577873Y-126259500D01*
X170577865Y-126259500D01*
X170029277Y-126259500D01*
X169962238Y-126239815D01*
X169916483Y-126187011D01*
X169906539Y-126117853D01*
X169914716Y-126088048D01*
X169949735Y-126003501D01*
X169949737Y-126003497D01*
X169980500Y-125848842D01*
X169980500Y-125732000D01*
X170000185Y-125664961D01*
X170052989Y-125619206D01*
X170104500Y-125608000D01*
X171266296Y-125608000D01*
X171268823Y-125608742D01*
G37*
%TD.AperFunction*%
%TA.AperFunction,NonConductor*%
G36*
X160215703Y-126216017D02*
G01*
X160222181Y-126222049D01*
X160227288Y-126227156D01*
X160351344Y-126351212D01*
X160500666Y-126443314D01*
X160667203Y-126498499D01*
X160769991Y-126509000D01*
X166070008Y-126508999D01*
X166172797Y-126498499D01*
X166339334Y-126443314D01*
X166488656Y-126351212D01*
X166532280Y-126307588D01*
X166540225Y-126303249D01*
X166545651Y-126296002D01*
X166570410Y-126286767D01*
X166593603Y-126274103D01*
X166602632Y-126274748D01*
X166611115Y-126271585D01*
X166636935Y-126277201D01*
X166663295Y-126279087D01*
X166672348Y-126284905D01*
X166679388Y-126286437D01*
X166707642Y-126307588D01*
X166723884Y-126323830D01*
X166757369Y-126385153D01*
X166752385Y-126454845D01*
X166710513Y-126510778D01*
X166705100Y-126514609D01*
X166699713Y-126518208D01*
X166699707Y-126518213D01*
X166588213Y-126629707D01*
X166588210Y-126629711D01*
X166500609Y-126760814D01*
X166500602Y-126760827D01*
X166440264Y-126906498D01*
X166440261Y-126906510D01*
X166409500Y-127061153D01*
X166409500Y-127135500D01*
X166389815Y-127202539D01*
X166337011Y-127248294D01*
X166285500Y-127259500D01*
X165104429Y-127259500D01*
X164995869Y-127281095D01*
X164983003Y-127283654D01*
X164978755Y-127284499D01*
X164860370Y-127333535D01*
X164753831Y-127404722D01*
X164753824Y-127404728D01*
X163886871Y-128271681D01*
X163825548Y-128305166D01*
X163799190Y-128308000D01*
X160769998Y-128308000D01*
X160769981Y-128308001D01*
X160667203Y-128318500D01*
X160667200Y-128318501D01*
X160500668Y-128373685D01*
X160500663Y-128373687D01*
X160351342Y-128465789D01*
X160222181Y-128594951D01*
X160160858Y-128628436D01*
X160091166Y-128623452D01*
X160035233Y-128581580D01*
X160010816Y-128516116D01*
X160010500Y-128507270D01*
X160010500Y-126309730D01*
X160030185Y-126242691D01*
X160082989Y-126196936D01*
X160152147Y-126186992D01*
X160215703Y-126216017D01*
G37*
%TD.AperFunction*%
%TA.AperFunction,NonConductor*%
G36*
X168913181Y-129065926D02*
G01*
X168946666Y-129127249D01*
X168949500Y-129153607D01*
X168949500Y-129225500D01*
X168929815Y-129292539D01*
X168877011Y-129338294D01*
X168825500Y-129349500D01*
X168528136Y-129349500D01*
X168410746Y-129364953D01*
X168410737Y-129364956D01*
X168350130Y-129390061D01*
X168341952Y-129391687D01*
X168337612Y-129394477D01*
X168302677Y-129399500D01*
X168219808Y-129399500D01*
X168152769Y-129379815D01*
X168107014Y-129327011D01*
X168097070Y-129257853D01*
X168126095Y-129194297D01*
X168132127Y-129187819D01*
X168223128Y-129096818D01*
X168284451Y-129063333D01*
X168310809Y-129060499D01*
X168677871Y-129060499D01*
X168677872Y-129060499D01*
X168737483Y-129054091D01*
X168782167Y-129037425D01*
X168851858Y-129032441D01*
X168913181Y-129065926D01*
G37*
%TD.AperFunction*%
%TA.AperFunction,NonConductor*%
G36*
X182502087Y-128411068D02*
G01*
X182531169Y-128416276D01*
X182535403Y-128420208D01*
X182540977Y-128421737D01*
X182560721Y-128443717D01*
X182582369Y-128463819D01*
X182583805Y-128469416D01*
X182587668Y-128473716D01*
X182592393Y-128502877D01*
X182599738Y-128531495D01*
X182598316Y-128539432D01*
X182598844Y-128542686D01*
X182593517Y-128566235D01*
X182584002Y-128594951D01*
X182570001Y-128637203D01*
X182570000Y-128637204D01*
X182559500Y-128739983D01*
X182559500Y-128739991D01*
X182559500Y-129299646D01*
X182559501Y-129745500D01*
X182539817Y-129812539D01*
X182487013Y-129858294D01*
X182435501Y-129869500D01*
X181294032Y-129869500D01*
X181226993Y-129849815D01*
X181181238Y-129797011D01*
X181171294Y-129727853D01*
X181190930Y-129676609D01*
X181269390Y-129559185D01*
X181269390Y-129559184D01*
X181269394Y-129559179D01*
X181329737Y-129413497D01*
X181340308Y-129360348D01*
X181340954Y-129358581D01*
X181340889Y-129357593D01*
X181353382Y-129324590D01*
X181367165Y-129299641D01*
X181388021Y-129271924D01*
X181402092Y-129257853D01*
X181435277Y-129224669D01*
X181506465Y-129118127D01*
X181555501Y-128999744D01*
X181558619Y-128984069D01*
X181566186Y-128946027D01*
X181580500Y-128874071D01*
X181580500Y-128691249D01*
X181581786Y-128686866D01*
X181580816Y-128682405D01*
X181591539Y-128653651D01*
X181600185Y-128624210D01*
X181604081Y-128620024D01*
X181605232Y-128616940D01*
X181630184Y-128591986D01*
X181671837Y-128560805D01*
X181737297Y-128536389D01*
X181770335Y-128538455D01*
X181775243Y-128539432D01*
X181881155Y-128560500D01*
X181881158Y-128560500D01*
X182038844Y-128560500D01*
X182038845Y-128560499D01*
X182193497Y-128529737D01*
X182339179Y-128469394D01*
X182406920Y-128424131D01*
X182435110Y-128415304D01*
X182462393Y-128403961D01*
X182468082Y-128404979D01*
X182473597Y-128403253D01*
X182502087Y-128411068D01*
G37*
%TD.AperFunction*%
%TA.AperFunction,NonConductor*%
G36*
X170786788Y-129053336D02*
G01*
X170810821Y-129069394D01*
X170956503Y-129129737D01*
X171076505Y-129153607D01*
X171111153Y-129160499D01*
X171111156Y-129160500D01*
X171255500Y-129160500D01*
X171322539Y-129180185D01*
X171368294Y-129232989D01*
X171379500Y-129284500D01*
X171379500Y-129945015D01*
X171390000Y-130047795D01*
X171390001Y-130047796D01*
X171445186Y-130214335D01*
X171445187Y-130214337D01*
X171537286Y-130363651D01*
X171537289Y-130363655D01*
X171661344Y-130487710D01*
X171661348Y-130487713D01*
X171810662Y-130579812D01*
X171810664Y-130579813D01*
X171810666Y-130579814D01*
X171977203Y-130634999D01*
X172079992Y-130645500D01*
X172079997Y-130645500D01*
X173980003Y-130645500D01*
X173980008Y-130645500D01*
X174082797Y-130634999D01*
X174249334Y-130579814D01*
X174398655Y-130487711D01*
X174522711Y-130363655D01*
X174569462Y-130287861D01*
X174621410Y-130241136D01*
X174690372Y-130229915D01*
X174754454Y-130257758D01*
X174780538Y-130287861D01*
X174827286Y-130363651D01*
X174827289Y-130363655D01*
X174951344Y-130487710D01*
X174951348Y-130487713D01*
X175100662Y-130579812D01*
X175100664Y-130579813D01*
X175100666Y-130579814D01*
X175267203Y-130634999D01*
X175369992Y-130645500D01*
X175369997Y-130645500D01*
X177270003Y-130645500D01*
X177270008Y-130645500D01*
X177372797Y-130634999D01*
X177539334Y-130579814D01*
X177688655Y-130487711D01*
X177803114Y-130373251D01*
X177812023Y-130368386D01*
X177818253Y-130360366D01*
X177842170Y-130351925D01*
X177864433Y-130339769D01*
X177874563Y-130340493D01*
X177884140Y-130337114D01*
X177908822Y-130342943D01*
X177934125Y-130344753D01*
X177942256Y-130350839D01*
X177952139Y-130353174D01*
X177969752Y-130371422D01*
X177990059Y-130386624D01*
X177994900Y-130397478D01*
X178000661Y-130403447D01*
X178012407Y-130436729D01*
X178013934Y-130444405D01*
X178013935Y-130444408D01*
X178014499Y-130447245D01*
X178063534Y-130565626D01*
X178063607Y-130565735D01*
X178063627Y-130565801D01*
X178066405Y-130570997D01*
X178065419Y-130571523D01*
X178084480Y-130632414D01*
X178084500Y-130634615D01*
X178084500Y-130659362D01*
X178099953Y-130776753D01*
X178099956Y-130776762D01*
X178160464Y-130922841D01*
X178256718Y-131048282D01*
X178382159Y-131144536D01*
X178528238Y-131205044D01*
X178645639Y-131220500D01*
X179159360Y-131220499D01*
X179159363Y-131220499D01*
X179276755Y-131205045D01*
X179276755Y-131205044D01*
X179276762Y-131205044D01*
X179276767Y-131205041D01*
X179277900Y-131204739D01*
X179279085Y-131204738D01*
X179284821Y-131203984D01*
X179284920Y-131204738D01*
X179335080Y-131204737D01*
X179335180Y-131203983D01*
X179340907Y-131204737D01*
X179342091Y-131204737D01*
X179343234Y-131205043D01*
X179343236Y-131205043D01*
X179343238Y-131205044D01*
X179460639Y-131220500D01*
X179974360Y-131220499D01*
X179974363Y-131220499D01*
X180091753Y-131205046D01*
X180091757Y-131205044D01*
X180091762Y-131205044D01*
X180152370Y-131179938D01*
X180199823Y-131170500D01*
X184844071Y-131170500D01*
X184928615Y-131153682D01*
X184969744Y-131145501D01*
X185088127Y-131096465D01*
X185194669Y-131025277D01*
X185443128Y-130776816D01*
X185504449Y-130743333D01*
X185530808Y-130740499D01*
X188560002Y-130740499D01*
X188560008Y-130740499D01*
X188662797Y-130729999D01*
X188736497Y-130705576D01*
X188806323Y-130703175D01*
X188866365Y-130738906D01*
X188897559Y-130801426D01*
X188899500Y-130823283D01*
X188899500Y-131385500D01*
X188879815Y-131452539D01*
X188827011Y-131498294D01*
X188775500Y-131509500D01*
X160134500Y-131509500D01*
X160067461Y-131489815D01*
X160021706Y-131437011D01*
X160010500Y-131385500D01*
X160010500Y-130809730D01*
X160030185Y-130742691D01*
X160082989Y-130696936D01*
X160152147Y-130686992D01*
X160215703Y-130716017D01*
X160222181Y-130722049D01*
X160227288Y-130727156D01*
X160351344Y-130851212D01*
X160500666Y-130943314D01*
X160667203Y-130998499D01*
X160769991Y-131009000D01*
X166070008Y-131008999D01*
X166172797Y-130998499D01*
X166339334Y-130943314D01*
X166488656Y-130851212D01*
X166603049Y-130736819D01*
X166664372Y-130703334D01*
X166690730Y-130700500D01*
X168302677Y-130700500D01*
X168350129Y-130709938D01*
X168410738Y-130735044D01*
X168528139Y-130750500D01*
X169041860Y-130750499D01*
X169041863Y-130750499D01*
X169159255Y-130735045D01*
X169159255Y-130735044D01*
X169159262Y-130735044D01*
X169159267Y-130735041D01*
X169160400Y-130734739D01*
X169161585Y-130734738D01*
X169167321Y-130733984D01*
X169167420Y-130734738D01*
X169217580Y-130734737D01*
X169217680Y-130733983D01*
X169223407Y-130734737D01*
X169224591Y-130734737D01*
X169225734Y-130735043D01*
X169225736Y-130735043D01*
X169225738Y-130735044D01*
X169343139Y-130750500D01*
X169856860Y-130750499D01*
X169856863Y-130750499D01*
X169974253Y-130735046D01*
X169974257Y-130735044D01*
X169974262Y-130735044D01*
X170120341Y-130674536D01*
X170245782Y-130578282D01*
X170342036Y-130452841D01*
X170402544Y-130306762D01*
X170418000Y-130189361D01*
X170417999Y-129910640D01*
X170417999Y-129910636D01*
X170402546Y-129793246D01*
X170402544Y-129793241D01*
X170402544Y-129793238D01*
X170342036Y-129647159D01*
X170342035Y-129647158D01*
X170342035Y-129647157D01*
X170276124Y-129561260D01*
X170267881Y-129539939D01*
X170255523Y-129520709D01*
X170252607Y-129500429D01*
X170250930Y-129496091D01*
X170250500Y-129485774D01*
X170250500Y-129260807D01*
X170270185Y-129193768D01*
X170286819Y-129173126D01*
X170363127Y-129096818D01*
X170424450Y-129063333D01*
X170450808Y-129060499D01*
X170577871Y-129060499D01*
X170577872Y-129060499D01*
X170637483Y-129054091D01*
X170674568Y-129040258D01*
X170744256Y-129035273D01*
X170786788Y-129053336D01*
G37*
%TD.AperFunction*%
%TA.AperFunction,Conductor*%
%TO.N,GND*%
G36*
X169394334Y-125657472D02*
G01*
X169450267Y-125699344D01*
X169474684Y-125764808D01*
X169475000Y-125773654D01*
X169475000Y-125786839D01*
X169472617Y-125811030D01*
X169470630Y-125821021D01*
X169466043Y-125844078D01*
X169458990Y-125867328D01*
X169447695Y-125894599D01*
X169427226Y-125954313D01*
X169419058Y-125984084D01*
X169419048Y-125984126D01*
X169406184Y-126045912D01*
X169406184Y-126189793D01*
X169416130Y-126258961D01*
X169418546Y-126267187D01*
X169418545Y-126337056D01*
X169396858Y-126379001D01*
X169386827Y-126391693D01*
X169372454Y-126402454D01*
X169286204Y-126517669D01*
X169285243Y-126520244D01*
X169277290Y-126530309D01*
X169257002Y-126544683D01*
X169239420Y-126562264D01*
X169228988Y-126564532D01*
X169220280Y-126570703D01*
X169195442Y-126571827D01*
X169171146Y-126577111D01*
X169161145Y-126573380D01*
X169150482Y-126573863D01*
X169128978Y-126561380D01*
X169105683Y-126552690D01*
X169097257Y-126542966D01*
X169090056Y-126538786D01*
X169084872Y-126528673D01*
X169080554Y-126523689D01*
X169079112Y-126524769D01*
X168987548Y-126402457D01*
X168987546Y-126402454D01*
X168972246Y-126391000D01*
X168930188Y-126359515D01*
X168927451Y-126355859D01*
X168923297Y-126353962D01*
X168906705Y-126328144D01*
X168888318Y-126303581D01*
X168887302Y-126297953D01*
X168885523Y-126295184D01*
X168880500Y-126260249D01*
X168880500Y-126120154D01*
X168900185Y-126053115D01*
X168916819Y-126032473D01*
X169263319Y-125685973D01*
X169324642Y-125652488D01*
X169394334Y-125657472D01*
G37*
%TD.AperFunction*%
%TA.AperFunction,Conductor*%
G36*
X182481714Y-123941955D02*
G01*
X182496370Y-123953279D01*
X182539764Y-123992317D01*
X182576438Y-124051788D01*
X182575139Y-124121645D01*
X182574540Y-124123501D01*
X182570001Y-124137200D01*
X182559500Y-124239983D01*
X182559500Y-125242993D01*
X182539815Y-125310032D01*
X182487011Y-125355787D01*
X182460055Y-125362675D01*
X182460401Y-125364264D01*
X182451739Y-125366148D01*
X182451736Y-125366148D01*
X182451736Y-125366149D01*
X182419147Y-125378303D01*
X182316926Y-125416429D01*
X182255600Y-125449915D01*
X182255593Y-125449920D01*
X182140428Y-125536131D01*
X182140410Y-125536147D01*
X181854673Y-125821885D01*
X181842110Y-125834905D01*
X181836128Y-125841332D01*
X181824062Y-125854766D01*
X181773702Y-125933128D01*
X181720898Y-125978883D01*
X181651740Y-125988826D01*
X181618635Y-125979226D01*
X181433527Y-125896189D01*
X181409898Y-125875991D01*
X181385012Y-125857362D01*
X181383564Y-125853481D01*
X181380416Y-125850790D01*
X181371457Y-125821021D01*
X181360595Y-125791897D01*
X181361475Y-125787849D01*
X181360282Y-125783884D01*
X181368839Y-125753996D01*
X181375447Y-125723624D01*
X181379076Y-125718244D01*
X181379515Y-125716714D01*
X181380973Y-125715432D01*
X181388432Y-125704379D01*
X181391785Y-125700292D01*
X181391789Y-125700289D01*
X181479394Y-125569179D01*
X181539737Y-125423497D01*
X181550308Y-125370348D01*
X181550954Y-125368581D01*
X181550889Y-125367591D01*
X181563381Y-125334592D01*
X181577168Y-125309636D01*
X181598018Y-125281926D01*
X181980277Y-124899669D01*
X182028650Y-124827270D01*
X182056264Y-124797786D01*
X182120782Y-124748282D01*
X182217036Y-124622841D01*
X182277544Y-124476762D01*
X182293000Y-124359361D01*
X182292999Y-124080640D01*
X182290499Y-124061649D01*
X182301265Y-123992615D01*
X182347645Y-123940359D01*
X182414913Y-123921474D01*
X182481714Y-123941955D01*
G37*
%TD.AperFunction*%
%TA.AperFunction,Conductor*%
G36*
X182238039Y-122849685D02*
G01*
X182283794Y-122902489D01*
X182295000Y-122954000D01*
X182295000Y-123500313D01*
X182301860Y-123567035D01*
X182298139Y-123587121D01*
X182299354Y-123607514D01*
X182291904Y-123620778D01*
X182289134Y-123635736D01*
X182275144Y-123650622D01*
X182265141Y-123668435D01*
X182251704Y-123675565D01*
X182241287Y-123686651D01*
X182221468Y-123691611D01*
X182203424Y-123701187D01*
X182188264Y-123699921D01*
X182173507Y-123703615D01*
X182154154Y-123697073D01*
X182133797Y-123695374D01*
X182110620Y-123682358D01*
X182107317Y-123681242D01*
X182103050Y-123678112D01*
X182035725Y-123626451D01*
X181994524Y-123570025D01*
X181988475Y-123510433D01*
X182005000Y-123395500D01*
X182005000Y-122954500D01*
X182005000Y-122954000D01*
X182007550Y-122945314D01*
X182006262Y-122936353D01*
X182017240Y-122912312D01*
X182024685Y-122886961D01*
X182031525Y-122881033D01*
X182035287Y-122872797D01*
X182057521Y-122858507D01*
X182077489Y-122841206D01*
X182088003Y-122838918D01*
X182094065Y-122835023D01*
X182129000Y-122830000D01*
X182171000Y-122830000D01*
X182238039Y-122849685D01*
G37*
%TD.AperFunction*%
%TA.AperFunction,Conductor*%
G36*
X178598831Y-121116178D02*
G01*
X178654765Y-121158048D01*
X178679184Y-121223512D01*
X178679500Y-121232360D01*
X178679501Y-121400998D01*
X178659817Y-121468038D01*
X178607013Y-121513793D01*
X178555501Y-121524999D01*
X178470764Y-121524999D01*
X178423312Y-121515560D01*
X178419046Y-121513793D01*
X178365631Y-121491668D01*
X178360212Y-121489271D01*
X178319112Y-121469895D01*
X178276168Y-121460008D01*
X178276167Y-121460008D01*
X178256076Y-121455382D01*
X178256359Y-121454419D01*
X178234416Y-121447976D01*
X178206449Y-121443954D01*
X178201396Y-121442791D01*
X178201394Y-121442789D01*
X178178911Y-121437614D01*
X178178906Y-121437613D01*
X178178904Y-121437613D01*
X178156110Y-121435705D01*
X178156109Y-121435705D01*
X178142929Y-121434602D01*
X178135629Y-121433772D01*
X178092003Y-121427500D01*
X178092001Y-121427500D01*
X177704000Y-121427500D01*
X177695314Y-121424949D01*
X177686353Y-121426238D01*
X177662312Y-121415259D01*
X177636961Y-121407815D01*
X177631033Y-121400974D01*
X177622797Y-121397213D01*
X177608507Y-121374978D01*
X177591206Y-121355011D01*
X177588918Y-121344496D01*
X177585023Y-121338435D01*
X177580000Y-121303500D01*
X177580000Y-121261500D01*
X177599685Y-121194461D01*
X177652489Y-121148706D01*
X177704000Y-121137500D01*
X177843459Y-121137500D01*
X177848715Y-121137171D01*
X177906459Y-121133559D01*
X177927094Y-121130966D01*
X177942550Y-121130000D01*
X178494703Y-121130000D01*
X178529139Y-121111195D01*
X178598831Y-121116178D01*
G37*
%TD.AperFunction*%
%TA.AperFunction,Conductor*%
G36*
X178735203Y-120403524D02*
G01*
X178768561Y-120449785D01*
X178802961Y-120532836D01*
X178802961Y-120532837D01*
X178802963Y-120532840D01*
X178802964Y-120532841D01*
X178868876Y-120618740D01*
X178894070Y-120683908D01*
X178894500Y-120694225D01*
X178894500Y-120707739D01*
X178874815Y-120774778D01*
X178856357Y-120794856D01*
X178857468Y-120795967D01*
X178851724Y-120801711D01*
X178851719Y-120801716D01*
X178851718Y-120801718D01*
X178820689Y-120842156D01*
X178755463Y-120927160D01*
X178721061Y-121010215D01*
X178677220Y-121064618D01*
X178610926Y-121086683D01*
X178543226Y-121069404D01*
X178495616Y-121018266D01*
X178482500Y-120962762D01*
X178482500Y-120598862D01*
X178482744Y-120598030D01*
X178482511Y-120597195D01*
X178492575Y-120564547D01*
X178502185Y-120531823D01*
X178502961Y-120530859D01*
X178503095Y-120530427D01*
X178503765Y-120529861D01*
X178518819Y-120511181D01*
X178530000Y-120500000D01*
X178530000Y-120497237D01*
X178549685Y-120430198D01*
X178602489Y-120384443D01*
X178671647Y-120374499D01*
X178735203Y-120403524D01*
G37*
%TD.AperFunction*%
%TD*%
M02*
