%TF.GenerationSoftware,KiCad,Pcbnew,9.0.6*%
%TF.CreationDate,2026-10-03T22:42:50+05:30*%
%TF.ProjectId,ACB_BMS,4143425f-424d-4532-9e6b-696361645f70,rev?*%
%TF.SameCoordinates,Original*%
%TF.FileFunction,Legend,Top*%
%TF.FilePolarity,Positive*%
%FSLAX46Y46*%
G04 Gerber Fmt 4.6, Leading zero omitted, Abs format (unit mm)*
G04 Created by KiCad (PCBNEW 9.0.6) date 2026-10-03 22:42:50*
%MOMM*%
%LPD*%
G01*
G04 APERTURE LIST*
%ADD10C,0.100000*%
%ADD11C,0.254000*%
%ADD12C,0.120000*%
%ADD13C,0.250000*%
G04 APERTURE END LIST*
D10*
X175174862Y-119503439D02*
X175198672Y-119432011D01*
X175198672Y-119432011D02*
X175222481Y-119408201D01*
X175222481Y-119408201D02*
X175270100Y-119384392D01*
X175270100Y-119384392D02*
X175341529Y-119384392D01*
X175341529Y-119384392D02*
X175389148Y-119408201D01*
X175389148Y-119408201D02*
X175412958Y-119432011D01*
X175412958Y-119432011D02*
X175436767Y-119479630D01*
X175436767Y-119479630D02*
X175436767Y-119670106D01*
X175436767Y-119670106D02*
X174936767Y-119670106D01*
X174936767Y-119670106D02*
X174936767Y-119503439D01*
X174936767Y-119503439D02*
X174960577Y-119455820D01*
X174960577Y-119455820D02*
X174984386Y-119432011D01*
X174984386Y-119432011D02*
X175032005Y-119408201D01*
X175032005Y-119408201D02*
X175079624Y-119408201D01*
X175079624Y-119408201D02*
X175127243Y-119432011D01*
X175127243Y-119432011D02*
X175151053Y-119455820D01*
X175151053Y-119455820D02*
X175174862Y-119503439D01*
X175174862Y-119503439D02*
X175174862Y-119670106D01*
X174936767Y-119241534D02*
X174936767Y-118955820D01*
X175436767Y-119098677D02*
X174936767Y-119098677D01*
X174984386Y-118812963D02*
X174960577Y-118789154D01*
X174960577Y-118789154D02*
X174936767Y-118741535D01*
X174936767Y-118741535D02*
X174936767Y-118622487D01*
X174936767Y-118622487D02*
X174960577Y-118574868D01*
X174960577Y-118574868D02*
X174984386Y-118551059D01*
X174984386Y-118551059D02*
X175032005Y-118527249D01*
X175032005Y-118527249D02*
X175079624Y-118527249D01*
X175079624Y-118527249D02*
X175151053Y-118551059D01*
X175151053Y-118551059D02*
X175436767Y-118836773D01*
X175436767Y-118836773D02*
X175436767Y-118527249D01*
X172671704Y-119468496D02*
X172695514Y-119397068D01*
X172695514Y-119397068D02*
X172719323Y-119373258D01*
X172719323Y-119373258D02*
X172766942Y-119349449D01*
X172766942Y-119349449D02*
X172838371Y-119349449D01*
X172838371Y-119349449D02*
X172885990Y-119373258D01*
X172885990Y-119373258D02*
X172909800Y-119397068D01*
X172909800Y-119397068D02*
X172933609Y-119444687D01*
X172933609Y-119444687D02*
X172933609Y-119635163D01*
X172933609Y-119635163D02*
X172433609Y-119635163D01*
X172433609Y-119635163D02*
X172433609Y-119468496D01*
X172433609Y-119468496D02*
X172457419Y-119420877D01*
X172457419Y-119420877D02*
X172481228Y-119397068D01*
X172481228Y-119397068D02*
X172528847Y-119373258D01*
X172528847Y-119373258D02*
X172576466Y-119373258D01*
X172576466Y-119373258D02*
X172624085Y-119397068D01*
X172624085Y-119397068D02*
X172647895Y-119420877D01*
X172647895Y-119420877D02*
X172671704Y-119468496D01*
X172671704Y-119468496D02*
X172671704Y-119635163D01*
X172433609Y-119206591D02*
X172433609Y-118920877D01*
X172933609Y-119063734D02*
X172433609Y-119063734D01*
X172743133Y-118754211D02*
X172743133Y-118373259D01*
X172933609Y-118563735D02*
X172552657Y-118563735D01*
X176652430Y-119493249D02*
X176676240Y-119421821D01*
X176676240Y-119421821D02*
X176700049Y-119398011D01*
X176700049Y-119398011D02*
X176747668Y-119374202D01*
X176747668Y-119374202D02*
X176819097Y-119374202D01*
X176819097Y-119374202D02*
X176866716Y-119398011D01*
X176866716Y-119398011D02*
X176890526Y-119421821D01*
X176890526Y-119421821D02*
X176914335Y-119469440D01*
X176914335Y-119469440D02*
X176914335Y-119659916D01*
X176914335Y-119659916D02*
X176414335Y-119659916D01*
X176414335Y-119659916D02*
X176414335Y-119493249D01*
X176414335Y-119493249D02*
X176438145Y-119445630D01*
X176438145Y-119445630D02*
X176461954Y-119421821D01*
X176461954Y-119421821D02*
X176509573Y-119398011D01*
X176509573Y-119398011D02*
X176557192Y-119398011D01*
X176557192Y-119398011D02*
X176604811Y-119421821D01*
X176604811Y-119421821D02*
X176628621Y-119445630D01*
X176628621Y-119445630D02*
X176652430Y-119493249D01*
X176652430Y-119493249D02*
X176652430Y-119659916D01*
X176414335Y-119231344D02*
X176414335Y-118945630D01*
X176914335Y-119088487D02*
X176414335Y-119088487D01*
X176723859Y-118778964D02*
X176723859Y-118398012D01*
X173931704Y-119458496D02*
X173955514Y-119387068D01*
X173955514Y-119387068D02*
X173979323Y-119363258D01*
X173979323Y-119363258D02*
X174026942Y-119339449D01*
X174026942Y-119339449D02*
X174098371Y-119339449D01*
X174098371Y-119339449D02*
X174145990Y-119363258D01*
X174145990Y-119363258D02*
X174169800Y-119387068D01*
X174169800Y-119387068D02*
X174193609Y-119434687D01*
X174193609Y-119434687D02*
X174193609Y-119625163D01*
X174193609Y-119625163D02*
X173693609Y-119625163D01*
X173693609Y-119625163D02*
X173693609Y-119458496D01*
X173693609Y-119458496D02*
X173717419Y-119410877D01*
X173717419Y-119410877D02*
X173741228Y-119387068D01*
X173741228Y-119387068D02*
X173788847Y-119363258D01*
X173788847Y-119363258D02*
X173836466Y-119363258D01*
X173836466Y-119363258D02*
X173884085Y-119387068D01*
X173884085Y-119387068D02*
X173907895Y-119410877D01*
X173907895Y-119410877D02*
X173931704Y-119458496D01*
X173931704Y-119458496D02*
X173931704Y-119625163D01*
X173693609Y-119196591D02*
X173693609Y-118910877D01*
X174193609Y-119053734D02*
X173693609Y-119053734D01*
X174193609Y-118482306D02*
X174193609Y-118768020D01*
X174193609Y-118625163D02*
X173693609Y-118625163D01*
X173693609Y-118625163D02*
X173765038Y-118672782D01*
X173765038Y-118672782D02*
X173812657Y-118720401D01*
X173812657Y-118720401D02*
X173836466Y-118768020D01*
X185376666Y-131476109D02*
X185138571Y-131476109D01*
X185138571Y-131476109D02*
X185138571Y-130976109D01*
X185519524Y-131023728D02*
X185543333Y-130999919D01*
X185543333Y-130999919D02*
X185590952Y-130976109D01*
X185590952Y-130976109D02*
X185710000Y-130976109D01*
X185710000Y-130976109D02*
X185757619Y-130999919D01*
X185757619Y-130999919D02*
X185781428Y-131023728D01*
X185781428Y-131023728D02*
X185805238Y-131071347D01*
X185805238Y-131071347D02*
X185805238Y-131118966D01*
X185805238Y-131118966D02*
X185781428Y-131190395D01*
X185781428Y-131190395D02*
X185495714Y-131476109D01*
X185495714Y-131476109D02*
X185805238Y-131476109D01*
X178986666Y-122416109D02*
X178820000Y-122178014D01*
X178700952Y-122416109D02*
X178700952Y-121916109D01*
X178700952Y-121916109D02*
X178891428Y-121916109D01*
X178891428Y-121916109D02*
X178939047Y-121939919D01*
X178939047Y-121939919D02*
X178962857Y-121963728D01*
X178962857Y-121963728D02*
X178986666Y-122011347D01*
X178986666Y-122011347D02*
X178986666Y-122082776D01*
X178986666Y-122082776D02*
X178962857Y-122130395D01*
X178962857Y-122130395D02*
X178939047Y-122154204D01*
X178939047Y-122154204D02*
X178891428Y-122178014D01*
X178891428Y-122178014D02*
X178700952Y-122178014D01*
X179177143Y-121963728D02*
X179200952Y-121939919D01*
X179200952Y-121939919D02*
X179248571Y-121916109D01*
X179248571Y-121916109D02*
X179367619Y-121916109D01*
X179367619Y-121916109D02*
X179415238Y-121939919D01*
X179415238Y-121939919D02*
X179439047Y-121963728D01*
X179439047Y-121963728D02*
X179462857Y-122011347D01*
X179462857Y-122011347D02*
X179462857Y-122058966D01*
X179462857Y-122058966D02*
X179439047Y-122130395D01*
X179439047Y-122130395D02*
X179153333Y-122416109D01*
X179153333Y-122416109D02*
X179462857Y-122416109D01*
X176336666Y-131148490D02*
X176312857Y-131172300D01*
X176312857Y-131172300D02*
X176241428Y-131196109D01*
X176241428Y-131196109D02*
X176193809Y-131196109D01*
X176193809Y-131196109D02*
X176122381Y-131172300D01*
X176122381Y-131172300D02*
X176074762Y-131124680D01*
X176074762Y-131124680D02*
X176050952Y-131077061D01*
X176050952Y-131077061D02*
X176027143Y-130981823D01*
X176027143Y-130981823D02*
X176027143Y-130910395D01*
X176027143Y-130910395D02*
X176050952Y-130815157D01*
X176050952Y-130815157D02*
X176074762Y-130767538D01*
X176074762Y-130767538D02*
X176122381Y-130719919D01*
X176122381Y-130719919D02*
X176193809Y-130696109D01*
X176193809Y-130696109D02*
X176241428Y-130696109D01*
X176241428Y-130696109D02*
X176312857Y-130719919D01*
X176312857Y-130719919D02*
X176336666Y-130743728D01*
X176789047Y-130696109D02*
X176550952Y-130696109D01*
X176550952Y-130696109D02*
X176527143Y-130934204D01*
X176527143Y-130934204D02*
X176550952Y-130910395D01*
X176550952Y-130910395D02*
X176598571Y-130886585D01*
X176598571Y-130886585D02*
X176717619Y-130886585D01*
X176717619Y-130886585D02*
X176765238Y-130910395D01*
X176765238Y-130910395D02*
X176789047Y-130934204D01*
X176789047Y-130934204D02*
X176812857Y-130981823D01*
X176812857Y-130981823D02*
X176812857Y-131100871D01*
X176812857Y-131100871D02*
X176789047Y-131148490D01*
X176789047Y-131148490D02*
X176765238Y-131172300D01*
X176765238Y-131172300D02*
X176717619Y-131196109D01*
X176717619Y-131196109D02*
X176598571Y-131196109D01*
X176598571Y-131196109D02*
X176550952Y-131172300D01*
X176550952Y-131172300D02*
X176527143Y-131148490D01*
X163636666Y-131476109D02*
X163398571Y-131476109D01*
X163398571Y-131476109D02*
X163398571Y-130976109D01*
X164065238Y-131476109D02*
X163779524Y-131476109D01*
X163922381Y-131476109D02*
X163922381Y-130976109D01*
X163922381Y-130976109D02*
X163874762Y-131047538D01*
X163874762Y-131047538D02*
X163827143Y-131095157D01*
X163827143Y-131095157D02*
X163779524Y-131118966D01*
X172976666Y-131178490D02*
X172952857Y-131202300D01*
X172952857Y-131202300D02*
X172881428Y-131226109D01*
X172881428Y-131226109D02*
X172833809Y-131226109D01*
X172833809Y-131226109D02*
X172762381Y-131202300D01*
X172762381Y-131202300D02*
X172714762Y-131154680D01*
X172714762Y-131154680D02*
X172690952Y-131107061D01*
X172690952Y-131107061D02*
X172667143Y-131011823D01*
X172667143Y-131011823D02*
X172667143Y-130940395D01*
X172667143Y-130940395D02*
X172690952Y-130845157D01*
X172690952Y-130845157D02*
X172714762Y-130797538D01*
X172714762Y-130797538D02*
X172762381Y-130749919D01*
X172762381Y-130749919D02*
X172833809Y-130726109D01*
X172833809Y-130726109D02*
X172881428Y-130726109D01*
X172881428Y-130726109D02*
X172952857Y-130749919D01*
X172952857Y-130749919D02*
X172976666Y-130773728D01*
X173405238Y-130892776D02*
X173405238Y-131226109D01*
X173286190Y-130702300D02*
X173167143Y-131059442D01*
X173167143Y-131059442D02*
X173476666Y-131059442D01*
X161288490Y-121433333D02*
X161312300Y-121457142D01*
X161312300Y-121457142D02*
X161336109Y-121528571D01*
X161336109Y-121528571D02*
X161336109Y-121576190D01*
X161336109Y-121576190D02*
X161312300Y-121647618D01*
X161312300Y-121647618D02*
X161264680Y-121695237D01*
X161264680Y-121695237D02*
X161217061Y-121719047D01*
X161217061Y-121719047D02*
X161121823Y-121742856D01*
X161121823Y-121742856D02*
X161050395Y-121742856D01*
X161050395Y-121742856D02*
X160955157Y-121719047D01*
X160955157Y-121719047D02*
X160907538Y-121695237D01*
X160907538Y-121695237D02*
X160859919Y-121647618D01*
X160859919Y-121647618D02*
X160836109Y-121576190D01*
X160836109Y-121576190D02*
X160836109Y-121528571D01*
X160836109Y-121528571D02*
X160859919Y-121457142D01*
X160859919Y-121457142D02*
X160883728Y-121433333D01*
X160836109Y-121004761D02*
X160836109Y-121099999D01*
X160836109Y-121099999D02*
X160859919Y-121147618D01*
X160859919Y-121147618D02*
X160883728Y-121171428D01*
X160883728Y-121171428D02*
X160955157Y-121219047D01*
X160955157Y-121219047D02*
X161050395Y-121242856D01*
X161050395Y-121242856D02*
X161240871Y-121242856D01*
X161240871Y-121242856D02*
X161288490Y-121219047D01*
X161288490Y-121219047D02*
X161312300Y-121195237D01*
X161312300Y-121195237D02*
X161336109Y-121147618D01*
X161336109Y-121147618D02*
X161336109Y-121052380D01*
X161336109Y-121052380D02*
X161312300Y-121004761D01*
X161312300Y-121004761D02*
X161288490Y-120980952D01*
X161288490Y-120980952D02*
X161240871Y-120957142D01*
X161240871Y-120957142D02*
X161121823Y-120957142D01*
X161121823Y-120957142D02*
X161074204Y-120980952D01*
X161074204Y-120980952D02*
X161050395Y-121004761D01*
X161050395Y-121004761D02*
X161026585Y-121052380D01*
X161026585Y-121052380D02*
X161026585Y-121147618D01*
X161026585Y-121147618D02*
X161050395Y-121195237D01*
X161050395Y-121195237D02*
X161074204Y-121219047D01*
X161074204Y-121219047D02*
X161121823Y-121242856D01*
X170946666Y-119618490D02*
X170922857Y-119642300D01*
X170922857Y-119642300D02*
X170851428Y-119666109D01*
X170851428Y-119666109D02*
X170803809Y-119666109D01*
X170803809Y-119666109D02*
X170732381Y-119642300D01*
X170732381Y-119642300D02*
X170684762Y-119594680D01*
X170684762Y-119594680D02*
X170660952Y-119547061D01*
X170660952Y-119547061D02*
X170637143Y-119451823D01*
X170637143Y-119451823D02*
X170637143Y-119380395D01*
X170637143Y-119380395D02*
X170660952Y-119285157D01*
X170660952Y-119285157D02*
X170684762Y-119237538D01*
X170684762Y-119237538D02*
X170732381Y-119189919D01*
X170732381Y-119189919D02*
X170803809Y-119166109D01*
X170803809Y-119166109D02*
X170851428Y-119166109D01*
X170851428Y-119166109D02*
X170922857Y-119189919D01*
X170922857Y-119189919D02*
X170946666Y-119213728D01*
X171422857Y-119666109D02*
X171137143Y-119666109D01*
X171280000Y-119666109D02*
X171280000Y-119166109D01*
X171280000Y-119166109D02*
X171232381Y-119237538D01*
X171232381Y-119237538D02*
X171184762Y-119285157D01*
X171184762Y-119285157D02*
X171137143Y-119308966D01*
X188128490Y-121083333D02*
X188152300Y-121107142D01*
X188152300Y-121107142D02*
X188176109Y-121178571D01*
X188176109Y-121178571D02*
X188176109Y-121226190D01*
X188176109Y-121226190D02*
X188152300Y-121297618D01*
X188152300Y-121297618D02*
X188104680Y-121345237D01*
X188104680Y-121345237D02*
X188057061Y-121369047D01*
X188057061Y-121369047D02*
X187961823Y-121392856D01*
X187961823Y-121392856D02*
X187890395Y-121392856D01*
X187890395Y-121392856D02*
X187795157Y-121369047D01*
X187795157Y-121369047D02*
X187747538Y-121345237D01*
X187747538Y-121345237D02*
X187699919Y-121297618D01*
X187699919Y-121297618D02*
X187676109Y-121226190D01*
X187676109Y-121226190D02*
X187676109Y-121178571D01*
X187676109Y-121178571D02*
X187699919Y-121107142D01*
X187699919Y-121107142D02*
X187723728Y-121083333D01*
X187676109Y-120916666D02*
X187676109Y-120583333D01*
X187676109Y-120583333D02*
X188176109Y-120797618D01*
X169156666Y-131248490D02*
X169132857Y-131272300D01*
X169132857Y-131272300D02*
X169061428Y-131296109D01*
X169061428Y-131296109D02*
X169013809Y-131296109D01*
X169013809Y-131296109D02*
X168942381Y-131272300D01*
X168942381Y-131272300D02*
X168894762Y-131224680D01*
X168894762Y-131224680D02*
X168870952Y-131177061D01*
X168870952Y-131177061D02*
X168847143Y-131081823D01*
X168847143Y-131081823D02*
X168847143Y-131010395D01*
X168847143Y-131010395D02*
X168870952Y-130915157D01*
X168870952Y-130915157D02*
X168894762Y-130867538D01*
X168894762Y-130867538D02*
X168942381Y-130819919D01*
X168942381Y-130819919D02*
X169013809Y-130796109D01*
X169013809Y-130796109D02*
X169061428Y-130796109D01*
X169061428Y-130796109D02*
X169132857Y-130819919D01*
X169132857Y-130819919D02*
X169156666Y-130843728D01*
X169323333Y-130796109D02*
X169632857Y-130796109D01*
X169632857Y-130796109D02*
X169466190Y-130986585D01*
X169466190Y-130986585D02*
X169537619Y-130986585D01*
X169537619Y-130986585D02*
X169585238Y-131010395D01*
X169585238Y-131010395D02*
X169609047Y-131034204D01*
X169609047Y-131034204D02*
X169632857Y-131081823D01*
X169632857Y-131081823D02*
X169632857Y-131200871D01*
X169632857Y-131200871D02*
X169609047Y-131248490D01*
X169609047Y-131248490D02*
X169585238Y-131272300D01*
X169585238Y-131272300D02*
X169537619Y-131296109D01*
X169537619Y-131296109D02*
X169394762Y-131296109D01*
X169394762Y-131296109D02*
X169347143Y-131272300D01*
X169347143Y-131272300D02*
X169323333Y-131248490D01*
D11*
X167940237Y-128234318D02*
X167940237Y-126964318D01*
X169270714Y-128113365D02*
X169210238Y-128173842D01*
X169210238Y-128173842D02*
X169028809Y-128234318D01*
X169028809Y-128234318D02*
X168907857Y-128234318D01*
X168907857Y-128234318D02*
X168726428Y-128173842D01*
X168726428Y-128173842D02*
X168605476Y-128052889D01*
X168605476Y-128052889D02*
X168544999Y-127931937D01*
X168544999Y-127931937D02*
X168484523Y-127690032D01*
X168484523Y-127690032D02*
X168484523Y-127508603D01*
X168484523Y-127508603D02*
X168544999Y-127266699D01*
X168544999Y-127266699D02*
X168605476Y-127145746D01*
X168605476Y-127145746D02*
X168726428Y-127024794D01*
X168726428Y-127024794D02*
X168907857Y-126964318D01*
X168907857Y-126964318D02*
X169028809Y-126964318D01*
X169028809Y-126964318D02*
X169210238Y-127024794D01*
X169210238Y-127024794D02*
X169270714Y-127085270D01*
X170480238Y-128234318D02*
X169754523Y-128234318D01*
X170117380Y-128234318D02*
X170117380Y-126964318D01*
X170117380Y-126964318D02*
X169996428Y-127145746D01*
X169996428Y-127145746D02*
X169875476Y-127266699D01*
X169875476Y-127266699D02*
X169754523Y-127327175D01*
D10*
X168156666Y-123716109D02*
X167990000Y-123478014D01*
X167870952Y-123716109D02*
X167870952Y-123216109D01*
X167870952Y-123216109D02*
X168061428Y-123216109D01*
X168061428Y-123216109D02*
X168109047Y-123239919D01*
X168109047Y-123239919D02*
X168132857Y-123263728D01*
X168132857Y-123263728D02*
X168156666Y-123311347D01*
X168156666Y-123311347D02*
X168156666Y-123382776D01*
X168156666Y-123382776D02*
X168132857Y-123430395D01*
X168132857Y-123430395D02*
X168109047Y-123454204D01*
X168109047Y-123454204D02*
X168061428Y-123478014D01*
X168061428Y-123478014D02*
X167870952Y-123478014D01*
X168323333Y-123216109D02*
X168632857Y-123216109D01*
X168632857Y-123216109D02*
X168466190Y-123406585D01*
X168466190Y-123406585D02*
X168537619Y-123406585D01*
X168537619Y-123406585D02*
X168585238Y-123430395D01*
X168585238Y-123430395D02*
X168609047Y-123454204D01*
X168609047Y-123454204D02*
X168632857Y-123501823D01*
X168632857Y-123501823D02*
X168632857Y-123620871D01*
X168632857Y-123620871D02*
X168609047Y-123668490D01*
X168609047Y-123668490D02*
X168585238Y-123692300D01*
X168585238Y-123692300D02*
X168537619Y-123716109D01*
X168537619Y-123716109D02*
X168394762Y-123716109D01*
X168394762Y-123716109D02*
X168347143Y-123692300D01*
X168347143Y-123692300D02*
X168323333Y-123668490D01*
D11*
X178740237Y-127865818D02*
X178740237Y-126595818D01*
X180070714Y-127744865D02*
X180010238Y-127805342D01*
X180010238Y-127805342D02*
X179828809Y-127865818D01*
X179828809Y-127865818D02*
X179707857Y-127865818D01*
X179707857Y-127865818D02*
X179526428Y-127805342D01*
X179526428Y-127805342D02*
X179405476Y-127684389D01*
X179405476Y-127684389D02*
X179344999Y-127563437D01*
X179344999Y-127563437D02*
X179284523Y-127321532D01*
X179284523Y-127321532D02*
X179284523Y-127140103D01*
X179284523Y-127140103D02*
X179344999Y-126898199D01*
X179344999Y-126898199D02*
X179405476Y-126777246D01*
X179405476Y-126777246D02*
X179526428Y-126656294D01*
X179526428Y-126656294D02*
X179707857Y-126595818D01*
X179707857Y-126595818D02*
X179828809Y-126595818D01*
X179828809Y-126595818D02*
X180010238Y-126656294D01*
X180010238Y-126656294D02*
X180070714Y-126716770D01*
X180554523Y-126716770D02*
X180614999Y-126656294D01*
X180614999Y-126656294D02*
X180735952Y-126595818D01*
X180735952Y-126595818D02*
X181038333Y-126595818D01*
X181038333Y-126595818D02*
X181159285Y-126656294D01*
X181159285Y-126656294D02*
X181219761Y-126716770D01*
X181219761Y-126716770D02*
X181280238Y-126837722D01*
X181280238Y-126837722D02*
X181280238Y-126958675D01*
X181280238Y-126958675D02*
X181219761Y-127140103D01*
X181219761Y-127140103D02*
X180494047Y-127865818D01*
X180494047Y-127865818D02*
X181280238Y-127865818D01*
D10*
X179216666Y-131568490D02*
X179192857Y-131592300D01*
X179192857Y-131592300D02*
X179121428Y-131616109D01*
X179121428Y-131616109D02*
X179073809Y-131616109D01*
X179073809Y-131616109D02*
X179002381Y-131592300D01*
X179002381Y-131592300D02*
X178954762Y-131544680D01*
X178954762Y-131544680D02*
X178930952Y-131497061D01*
X178930952Y-131497061D02*
X178907143Y-131401823D01*
X178907143Y-131401823D02*
X178907143Y-131330395D01*
X178907143Y-131330395D02*
X178930952Y-131235157D01*
X178930952Y-131235157D02*
X178954762Y-131187538D01*
X178954762Y-131187538D02*
X179002381Y-131139919D01*
X179002381Y-131139919D02*
X179073809Y-131116109D01*
X179073809Y-131116109D02*
X179121428Y-131116109D01*
X179121428Y-131116109D02*
X179192857Y-131139919D01*
X179192857Y-131139919D02*
X179216666Y-131163728D01*
X179502381Y-131330395D02*
X179454762Y-131306585D01*
X179454762Y-131306585D02*
X179430952Y-131282776D01*
X179430952Y-131282776D02*
X179407143Y-131235157D01*
X179407143Y-131235157D02*
X179407143Y-131211347D01*
X179407143Y-131211347D02*
X179430952Y-131163728D01*
X179430952Y-131163728D02*
X179454762Y-131139919D01*
X179454762Y-131139919D02*
X179502381Y-131116109D01*
X179502381Y-131116109D02*
X179597619Y-131116109D01*
X179597619Y-131116109D02*
X179645238Y-131139919D01*
X179645238Y-131139919D02*
X179669047Y-131163728D01*
X179669047Y-131163728D02*
X179692857Y-131211347D01*
X179692857Y-131211347D02*
X179692857Y-131235157D01*
X179692857Y-131235157D02*
X179669047Y-131282776D01*
X179669047Y-131282776D02*
X179645238Y-131306585D01*
X179645238Y-131306585D02*
X179597619Y-131330395D01*
X179597619Y-131330395D02*
X179502381Y-131330395D01*
X179502381Y-131330395D02*
X179454762Y-131354204D01*
X179454762Y-131354204D02*
X179430952Y-131378014D01*
X179430952Y-131378014D02*
X179407143Y-131425633D01*
X179407143Y-131425633D02*
X179407143Y-131520871D01*
X179407143Y-131520871D02*
X179430952Y-131568490D01*
X179430952Y-131568490D02*
X179454762Y-131592300D01*
X179454762Y-131592300D02*
X179502381Y-131616109D01*
X179502381Y-131616109D02*
X179597619Y-131616109D01*
X179597619Y-131616109D02*
X179645238Y-131592300D01*
X179645238Y-131592300D02*
X179669047Y-131568490D01*
X179669047Y-131568490D02*
X179692857Y-131520871D01*
X179692857Y-131520871D02*
X179692857Y-131425633D01*
X179692857Y-131425633D02*
X179669047Y-131378014D01*
X179669047Y-131378014D02*
X179645238Y-131354204D01*
X179645238Y-131354204D02*
X179597619Y-131330395D01*
X181506666Y-123766109D02*
X181340000Y-123528014D01*
X181220952Y-123766109D02*
X181220952Y-123266109D01*
X181220952Y-123266109D02*
X181411428Y-123266109D01*
X181411428Y-123266109D02*
X181459047Y-123289919D01*
X181459047Y-123289919D02*
X181482857Y-123313728D01*
X181482857Y-123313728D02*
X181506666Y-123361347D01*
X181506666Y-123361347D02*
X181506666Y-123432776D01*
X181506666Y-123432776D02*
X181482857Y-123480395D01*
X181482857Y-123480395D02*
X181459047Y-123504204D01*
X181459047Y-123504204D02*
X181411428Y-123528014D01*
X181411428Y-123528014D02*
X181220952Y-123528014D01*
X181935238Y-123432776D02*
X181935238Y-123766109D01*
X181816190Y-123242300D02*
X181697143Y-123599442D01*
X181697143Y-123599442D02*
X182006666Y-123599442D01*
X169519524Y-123504204D02*
X169590952Y-123528014D01*
X169590952Y-123528014D02*
X169614762Y-123551823D01*
X169614762Y-123551823D02*
X169638571Y-123599442D01*
X169638571Y-123599442D02*
X169638571Y-123670871D01*
X169638571Y-123670871D02*
X169614762Y-123718490D01*
X169614762Y-123718490D02*
X169590952Y-123742300D01*
X169590952Y-123742300D02*
X169543333Y-123766109D01*
X169543333Y-123766109D02*
X169352857Y-123766109D01*
X169352857Y-123766109D02*
X169352857Y-123266109D01*
X169352857Y-123266109D02*
X169519524Y-123266109D01*
X169519524Y-123266109D02*
X169567143Y-123289919D01*
X169567143Y-123289919D02*
X169590952Y-123313728D01*
X169590952Y-123313728D02*
X169614762Y-123361347D01*
X169614762Y-123361347D02*
X169614762Y-123408966D01*
X169614762Y-123408966D02*
X169590952Y-123456585D01*
X169590952Y-123456585D02*
X169567143Y-123480395D01*
X169567143Y-123480395D02*
X169519524Y-123504204D01*
X169519524Y-123504204D02*
X169352857Y-123504204D01*
X169781429Y-123266109D02*
X170067143Y-123266109D01*
X169924286Y-123766109D02*
X169924286Y-123266109D01*
X170495714Y-123766109D02*
X170210000Y-123766109D01*
X170352857Y-123766109D02*
X170352857Y-123266109D01*
X170352857Y-123266109D02*
X170305238Y-123337538D01*
X170305238Y-123337538D02*
X170257619Y-123385157D01*
X170257619Y-123385157D02*
X170210000Y-123408966D01*
X171114761Y-123766109D02*
X171090952Y-123766109D01*
X171090952Y-123766109D02*
X171043332Y-123742300D01*
X171043332Y-123742300D02*
X170971904Y-123670871D01*
X170971904Y-123670871D02*
X170852856Y-123528014D01*
X170852856Y-123528014D02*
X170805237Y-123456585D01*
X170805237Y-123456585D02*
X170781428Y-123385157D01*
X170781428Y-123385157D02*
X170781428Y-123337538D01*
X170781428Y-123337538D02*
X170805237Y-123289919D01*
X170805237Y-123289919D02*
X170852856Y-123266109D01*
X170852856Y-123266109D02*
X170876666Y-123266109D01*
X170876666Y-123266109D02*
X170924285Y-123289919D01*
X170924285Y-123289919D02*
X170948094Y-123337538D01*
X170948094Y-123337538D02*
X170948094Y-123361347D01*
X170948094Y-123361347D02*
X170924285Y-123408966D01*
X170924285Y-123408966D02*
X170900475Y-123432776D01*
X170900475Y-123432776D02*
X170757618Y-123528014D01*
X170757618Y-123528014D02*
X170733809Y-123551823D01*
X170733809Y-123551823D02*
X170709999Y-123599442D01*
X170709999Y-123599442D02*
X170709999Y-123670871D01*
X170709999Y-123670871D02*
X170733809Y-123718490D01*
X170733809Y-123718490D02*
X170757618Y-123742300D01*
X170757618Y-123742300D02*
X170805237Y-123766109D01*
X170805237Y-123766109D02*
X170876666Y-123766109D01*
X170876666Y-123766109D02*
X170924285Y-123742300D01*
X170924285Y-123742300D02*
X170948094Y-123718490D01*
X170948094Y-123718490D02*
X171019523Y-123623252D01*
X171019523Y-123623252D02*
X171043332Y-123551823D01*
X171043332Y-123551823D02*
X171043332Y-123504204D01*
X171305238Y-123313728D02*
X171329047Y-123289919D01*
X171329047Y-123289919D02*
X171376666Y-123266109D01*
X171376666Y-123266109D02*
X171495714Y-123266109D01*
X171495714Y-123266109D02*
X171543333Y-123289919D01*
X171543333Y-123289919D02*
X171567142Y-123313728D01*
X171567142Y-123313728D02*
X171590952Y-123361347D01*
X171590952Y-123361347D02*
X171590952Y-123408966D01*
X171590952Y-123408966D02*
X171567142Y-123480395D01*
X171567142Y-123480395D02*
X171281428Y-123766109D01*
X171281428Y-123766109D02*
X171590952Y-123766109D01*
X179076666Y-119718490D02*
X179052857Y-119742300D01*
X179052857Y-119742300D02*
X178981428Y-119766109D01*
X178981428Y-119766109D02*
X178933809Y-119766109D01*
X178933809Y-119766109D02*
X178862381Y-119742300D01*
X178862381Y-119742300D02*
X178814762Y-119694680D01*
X178814762Y-119694680D02*
X178790952Y-119647061D01*
X178790952Y-119647061D02*
X178767143Y-119551823D01*
X178767143Y-119551823D02*
X178767143Y-119480395D01*
X178767143Y-119480395D02*
X178790952Y-119385157D01*
X178790952Y-119385157D02*
X178814762Y-119337538D01*
X178814762Y-119337538D02*
X178862381Y-119289919D01*
X178862381Y-119289919D02*
X178933809Y-119266109D01*
X178933809Y-119266109D02*
X178981428Y-119266109D01*
X178981428Y-119266109D02*
X179052857Y-119289919D01*
X179052857Y-119289919D02*
X179076666Y-119313728D01*
X179267143Y-119313728D02*
X179290952Y-119289919D01*
X179290952Y-119289919D02*
X179338571Y-119266109D01*
X179338571Y-119266109D02*
X179457619Y-119266109D01*
X179457619Y-119266109D02*
X179505238Y-119289919D01*
X179505238Y-119289919D02*
X179529047Y-119313728D01*
X179529047Y-119313728D02*
X179552857Y-119361347D01*
X179552857Y-119361347D02*
X179552857Y-119408966D01*
X179552857Y-119408966D02*
X179529047Y-119480395D01*
X179529047Y-119480395D02*
X179243333Y-119766109D01*
X179243333Y-119766109D02*
X179552857Y-119766109D01*
X170086666Y-122256109D02*
X169920000Y-122018014D01*
X169800952Y-122256109D02*
X169800952Y-121756109D01*
X169800952Y-121756109D02*
X169991428Y-121756109D01*
X169991428Y-121756109D02*
X170039047Y-121779919D01*
X170039047Y-121779919D02*
X170062857Y-121803728D01*
X170062857Y-121803728D02*
X170086666Y-121851347D01*
X170086666Y-121851347D02*
X170086666Y-121922776D01*
X170086666Y-121922776D02*
X170062857Y-121970395D01*
X170062857Y-121970395D02*
X170039047Y-121994204D01*
X170039047Y-121994204D02*
X169991428Y-122018014D01*
X169991428Y-122018014D02*
X169800952Y-122018014D01*
X170562857Y-122256109D02*
X170277143Y-122256109D01*
X170420000Y-122256109D02*
X170420000Y-121756109D01*
X170420000Y-121756109D02*
X170372381Y-121827538D01*
X170372381Y-121827538D02*
X170324762Y-121875157D01*
X170324762Y-121875157D02*
X170277143Y-121898966D01*
X178419524Y-123494204D02*
X178490952Y-123518014D01*
X178490952Y-123518014D02*
X178514762Y-123541823D01*
X178514762Y-123541823D02*
X178538571Y-123589442D01*
X178538571Y-123589442D02*
X178538571Y-123660871D01*
X178538571Y-123660871D02*
X178514762Y-123708490D01*
X178514762Y-123708490D02*
X178490952Y-123732300D01*
X178490952Y-123732300D02*
X178443333Y-123756109D01*
X178443333Y-123756109D02*
X178252857Y-123756109D01*
X178252857Y-123756109D02*
X178252857Y-123256109D01*
X178252857Y-123256109D02*
X178419524Y-123256109D01*
X178419524Y-123256109D02*
X178467143Y-123279919D01*
X178467143Y-123279919D02*
X178490952Y-123303728D01*
X178490952Y-123303728D02*
X178514762Y-123351347D01*
X178514762Y-123351347D02*
X178514762Y-123398966D01*
X178514762Y-123398966D02*
X178490952Y-123446585D01*
X178490952Y-123446585D02*
X178467143Y-123470395D01*
X178467143Y-123470395D02*
X178419524Y-123494204D01*
X178419524Y-123494204D02*
X178252857Y-123494204D01*
X178681429Y-123256109D02*
X178967143Y-123256109D01*
X178824286Y-123756109D02*
X178824286Y-123256109D01*
X179110000Y-123303728D02*
X179133809Y-123279919D01*
X179133809Y-123279919D02*
X179181428Y-123256109D01*
X179181428Y-123256109D02*
X179300476Y-123256109D01*
X179300476Y-123256109D02*
X179348095Y-123279919D01*
X179348095Y-123279919D02*
X179371904Y-123303728D01*
X179371904Y-123303728D02*
X179395714Y-123351347D01*
X179395714Y-123351347D02*
X179395714Y-123398966D01*
X179395714Y-123398966D02*
X179371904Y-123470395D01*
X179371904Y-123470395D02*
X179086190Y-123756109D01*
X179086190Y-123756109D02*
X179395714Y-123756109D01*
X180014761Y-123756109D02*
X179990952Y-123756109D01*
X179990952Y-123756109D02*
X179943332Y-123732300D01*
X179943332Y-123732300D02*
X179871904Y-123660871D01*
X179871904Y-123660871D02*
X179752856Y-123518014D01*
X179752856Y-123518014D02*
X179705237Y-123446585D01*
X179705237Y-123446585D02*
X179681428Y-123375157D01*
X179681428Y-123375157D02*
X179681428Y-123327538D01*
X179681428Y-123327538D02*
X179705237Y-123279919D01*
X179705237Y-123279919D02*
X179752856Y-123256109D01*
X179752856Y-123256109D02*
X179776666Y-123256109D01*
X179776666Y-123256109D02*
X179824285Y-123279919D01*
X179824285Y-123279919D02*
X179848094Y-123327538D01*
X179848094Y-123327538D02*
X179848094Y-123351347D01*
X179848094Y-123351347D02*
X179824285Y-123398966D01*
X179824285Y-123398966D02*
X179800475Y-123422776D01*
X179800475Y-123422776D02*
X179657618Y-123518014D01*
X179657618Y-123518014D02*
X179633809Y-123541823D01*
X179633809Y-123541823D02*
X179609999Y-123589442D01*
X179609999Y-123589442D02*
X179609999Y-123660871D01*
X179609999Y-123660871D02*
X179633809Y-123708490D01*
X179633809Y-123708490D02*
X179657618Y-123732300D01*
X179657618Y-123732300D02*
X179705237Y-123756109D01*
X179705237Y-123756109D02*
X179776666Y-123756109D01*
X179776666Y-123756109D02*
X179824285Y-123732300D01*
X179824285Y-123732300D02*
X179848094Y-123708490D01*
X179848094Y-123708490D02*
X179919523Y-123613252D01*
X179919523Y-123613252D02*
X179943332Y-123541823D01*
X179943332Y-123541823D02*
X179943332Y-123494204D01*
X180181428Y-123256109D02*
X180490952Y-123256109D01*
X180490952Y-123256109D02*
X180324285Y-123446585D01*
X180324285Y-123446585D02*
X180395714Y-123446585D01*
X180395714Y-123446585D02*
X180443333Y-123470395D01*
X180443333Y-123470395D02*
X180467142Y-123494204D01*
X180467142Y-123494204D02*
X180490952Y-123541823D01*
X180490952Y-123541823D02*
X180490952Y-123660871D01*
X180490952Y-123660871D02*
X180467142Y-123708490D01*
X180467142Y-123708490D02*
X180443333Y-123732300D01*
X180443333Y-123732300D02*
X180395714Y-123756109D01*
X180395714Y-123756109D02*
X180252857Y-123756109D01*
X180252857Y-123756109D02*
X180205238Y-123732300D01*
X180205238Y-123732300D02*
X180181428Y-123708490D01*
D12*
%TO.C,L2*%
X182800000Y-130250000D02*
X182800000Y-124030000D01*
X189020000Y-124030000D02*
X189020000Y-130250000D01*
%TO.C,C5*%
X175185000Y-128217369D02*
X175185000Y-126022631D01*
X177455000Y-128217369D02*
X177455000Y-126022631D01*
%TO.C,L1*%
X160310000Y-130518500D02*
X160310000Y-124298500D01*
X166530000Y-124298500D02*
X166530000Y-130518500D01*
%TO.C,C4*%
X171895000Y-126022631D02*
X171895000Y-128217369D01*
X174165000Y-126022631D02*
X174165000Y-128217369D01*
%TO.C,C6*%
X165947369Y-120115000D02*
X163752631Y-120115000D01*
X165947369Y-122385000D02*
X163752631Y-122385000D01*
%TO.C,J1*%
X171960000Y-122490000D02*
X171960000Y-121330000D01*
X172770000Y-122490000D02*
X171960000Y-122490000D01*
X173580000Y-120170000D02*
X177325000Y-120170000D01*
X173580000Y-120663292D02*
X173580000Y-120170000D01*
X173580000Y-122490000D02*
X173580000Y-121996708D01*
X173580000Y-122490000D02*
X177325000Y-122490000D01*
X177325000Y-121012077D02*
X177325000Y-120170000D01*
X177325000Y-122490000D02*
X177325000Y-121647923D01*
%TO.C,C7*%
X183032631Y-120045000D02*
X185227369Y-120045000D01*
X183032631Y-122315000D02*
X185227369Y-122315000D01*
D13*
%TO.C,IC1*%
X167955000Y-126260000D02*
G75*
G02*
X167705000Y-126260000I-125000J0D01*
G01*
X167705000Y-126260000D02*
G75*
G02*
X167955000Y-126260000I125000J0D01*
G01*
%TO.C,IC2*%
X181455000Y-128691500D02*
G75*
G02*
X181205000Y-128691500I-125000J0D01*
G01*
X181205000Y-128691500D02*
G75*
G02*
X181455000Y-128691500I125000J0D01*
G01*
D10*
%TO.C,BT1&2*%
X171335000Y-124190000D02*
G75*
G02*
X171235000Y-124190000I-50000J0D01*
G01*
X171235000Y-124190000D02*
G75*
G02*
X171335000Y-124190000I50000J0D01*
G01*
%TO.C,BT2&3*%
X178065000Y-124220000D02*
G75*
G02*
X177965000Y-124220000I-50000J0D01*
G01*
X177965000Y-124220000D02*
G75*
G02*
X178065000Y-124220000I50000J0D01*
G01*
%TD*%
M02*
