%TF.GenerationSoftware,KiCad,Pcbnew,9.0.6*%
%TF.CreationDate,2026-10-03T22:42:50+05:30*%
%TF.ProjectId,ACB_BMS,4143425f-424d-4532-9e6b-696361645f70,rev?*%
%TF.SameCoordinates,Original*%
%TF.FileFunction,Copper,L2,Bot*%
%TF.FilePolarity,Positive*%
%FSLAX46Y46*%
G04 Gerber Fmt 4.6, Leading zero omitted, Abs format (unit mm)*
G04 Created by KiCad (PCBNEW 9.0.6) date 2026-10-03 22:42:50*
%MOMM*%
%LPD*%
G01*
G04 APERTURE LIST*
%TA.AperFunction,ComponentPad*%
%ADD10R,1.000000X1.000000*%
%TD*%
%TA.AperFunction,ComponentPad*%
%ADD11C,1.000000*%
%TD*%
%TA.AperFunction,ViaPad*%
%ADD12C,0.600000*%
%TD*%
%TA.AperFunction,Conductor*%
%ADD13C,0.300000*%
%TD*%
G04 APERTURE END LIST*
D10*
%TO.P,J1,1,Pin_1*%
%TO.N,Net-(IC1-BATP)*%
X172770000Y-121330000D03*
D11*
%TO.P,J1,2,Pin_2*%
%TO.N,Net-(IC1-BATC)*%
X174040000Y-121330000D03*
%TO.P,J1,3,Pin_3*%
%TO.N,Net-(IC1-BATN)*%
X175310000Y-121330000D03*
%TO.P,J1,4,Pin_4*%
%TO.N,GND*%
X176580000Y-121330000D03*
%TD*%
D12*
%TO.N,Net-(IC2-ISET)*%
X179510000Y-122480000D03*
X176880000Y-127550000D03*
%TO.N,Net-(IC1-BATC)*%
X177970000Y-123330000D03*
X181960000Y-127760000D03*
X180770000Y-125190000D03*
%TO.N,GND*%
X169180000Y-125770000D03*
%TO.N,Net-(IC1-ISET)*%
X171140000Y-127410000D03*
X168870000Y-121320000D03*
%TO.N,Net-(IC2-BIAS)*%
X178640000Y-129640000D03*
X178650000Y-125460000D03*
%TO.N,Net-(IC1-BATN)*%
X167130000Y-129270000D03*
X180560000Y-129180000D03*
X165685000Y-123215000D03*
X185600000Y-127040000D03*
%TO.N,Net-(IC1-BATP)*%
X167790000Y-124950000D03*
X171326000Y-122774000D03*
X167210000Y-127140000D03*
X173040000Y-127840000D03*
%TO.N,Net-(D1-K)*%
X171190000Y-128360000D03*
X172100000Y-123400000D03*
%TD*%
D13*
%TO.N,Net-(IC2-ISET)*%
X176880000Y-127550000D02*
X176880000Y-123499346D01*
X176880000Y-123499346D02*
X177899346Y-122480000D01*
X177899346Y-122480000D02*
X179510000Y-122480000D01*
%TO.N,Net-(IC1-BATC)*%
X179830000Y-125190000D02*
X177970000Y-123330000D01*
X180770000Y-126570000D02*
X181960000Y-127760000D01*
X180770000Y-125190000D02*
X180770000Y-126570000D01*
X180770000Y-125190000D02*
X179830000Y-125190000D01*
%TO.N,GND*%
X171919000Y-120479000D02*
X175729000Y-120479000D01*
X169180000Y-125770000D02*
X169180000Y-123218000D01*
X175729000Y-120479000D02*
X176580000Y-121330000D01*
X169180000Y-123218000D02*
X171919000Y-120479000D01*
%TO.N,Net-(IC1-ISET)*%
X171140000Y-127410000D02*
X169899346Y-127410000D01*
X168529000Y-121661000D02*
X168870000Y-121320000D01*
X169899346Y-127410000D02*
X168529000Y-126039654D01*
X168529000Y-126039654D02*
X168529000Y-121661000D01*
%TO.N,Net-(IC2-BIAS)*%
X178640000Y-125470000D02*
X178650000Y-125460000D01*
X178640000Y-129640000D02*
X178640000Y-125470000D01*
%TO.N,Net-(IC1-BATN)*%
X181790000Y-129180000D02*
X180560000Y-129180000D01*
X165685000Y-127825000D02*
X167130000Y-129270000D01*
X182850000Y-128120000D02*
X181790000Y-129180000D01*
X165685000Y-123215000D02*
X165685000Y-127825000D01*
X184540000Y-128100000D02*
X184540000Y-128120000D01*
X184540000Y-128120000D02*
X182850000Y-128120000D01*
X185600000Y-127040000D02*
X184540000Y-128100000D01*
%TO.N,Net-(IC1-BATP)*%
X171326000Y-122774000D02*
X171326000Y-126126000D01*
X167210000Y-127140000D02*
X167210000Y-125530000D01*
X171326000Y-126126000D02*
X173040000Y-127840000D01*
X167210000Y-125530000D02*
X167790000Y-124950000D01*
%TO.N,Net-(D1-K)*%
X173691000Y-128109654D02*
X173691000Y-124991000D01*
X171190000Y-128360000D02*
X171321000Y-128491000D01*
X173309654Y-128491000D02*
X173691000Y-128109654D01*
X173691000Y-124991000D02*
X172100000Y-123400000D01*
X171321000Y-128491000D02*
X173309654Y-128491000D01*
%TD*%
%TA.AperFunction,NonConductor*%
G36*
X188842539Y-118640185D02*
G01*
X188888294Y-118692989D01*
X188899500Y-118744500D01*
X188899500Y-131385500D01*
X188879815Y-131452539D01*
X188827011Y-131498294D01*
X188775500Y-131509500D01*
X160134500Y-131509500D01*
X160067461Y-131489815D01*
X160021706Y-131437011D01*
X160010500Y-131385500D01*
X160010500Y-123136153D01*
X164884500Y-123136153D01*
X164884500Y-123293846D01*
X164915261Y-123448489D01*
X164915264Y-123448501D01*
X164975602Y-123594172D01*
X164975609Y-123594185D01*
X165005704Y-123639225D01*
X165006497Y-123640933D01*
X165007243Y-123641586D01*
X165021748Y-123673762D01*
X165029646Y-123701154D01*
X165034500Y-123735505D01*
X165034500Y-127889069D01*
X165053874Y-127986465D01*
X165059499Y-128014744D01*
X165108535Y-128133127D01*
X165179723Y-128239669D01*
X165179726Y-128239673D01*
X165179727Y-128239674D01*
X166301972Y-129361918D01*
X166322726Y-129389500D01*
X166322831Y-129389639D01*
X166336615Y-129414591D01*
X166349692Y-129450358D01*
X166360261Y-129503492D01*
X166360264Y-129503501D01*
X166420602Y-129649172D01*
X166420609Y-129649185D01*
X166508210Y-129780288D01*
X166508213Y-129780292D01*
X166619707Y-129891786D01*
X166619711Y-129891789D01*
X166750814Y-129979390D01*
X166750827Y-129979397D01*
X166896498Y-130039735D01*
X166896503Y-130039737D01*
X167051153Y-130070499D01*
X167051156Y-130070500D01*
X167051158Y-130070500D01*
X167208844Y-130070500D01*
X167208845Y-130070499D01*
X167363497Y-130039737D01*
X167509179Y-129979394D01*
X167640289Y-129891789D01*
X167751789Y-129780289D01*
X167839394Y-129649179D01*
X167899737Y-129503497D01*
X167930500Y-129348842D01*
X167930500Y-129191158D01*
X167930500Y-129191155D01*
X167930499Y-129191153D01*
X167924402Y-129160500D01*
X167899737Y-129036503D01*
X167883075Y-128996277D01*
X167839397Y-128890827D01*
X167839390Y-128890814D01*
X167751789Y-128759711D01*
X167751786Y-128759707D01*
X167640292Y-128648213D01*
X167640288Y-128648210D01*
X167509185Y-128560609D01*
X167509172Y-128560602D01*
X167363501Y-128500264D01*
X167363492Y-128500262D01*
X167310357Y-128489692D01*
X167308585Y-128489044D01*
X167307598Y-128489110D01*
X167274590Y-128476614D01*
X167249640Y-128462831D01*
X167221919Y-128441973D01*
X166907510Y-128127564D01*
X166874025Y-128066241D01*
X166879009Y-127996549D01*
X166920881Y-127940616D01*
X166986345Y-127916199D01*
X167019379Y-127918265D01*
X167074209Y-127929172D01*
X167131156Y-127940500D01*
X167131158Y-127940500D01*
X167288844Y-127940500D01*
X167288845Y-127940499D01*
X167443497Y-127909737D01*
X167589179Y-127849394D01*
X167720289Y-127761789D01*
X167831789Y-127650289D01*
X167919394Y-127519179D01*
X167979737Y-127373497D01*
X168010500Y-127218842D01*
X168010500Y-127061158D01*
X168010500Y-127061155D01*
X168010499Y-127061153D01*
X167996398Y-126990263D01*
X167979737Y-126906503D01*
X167975141Y-126895407D01*
X167919397Y-126760827D01*
X167919393Y-126760820D01*
X167915268Y-126754646D01*
X167889292Y-126715771D01*
X167888496Y-126714057D01*
X167887750Y-126713404D01*
X167873249Y-126681232D01*
X167865350Y-126653834D01*
X167860500Y-126619490D01*
X167860500Y-126590463D01*
X167880185Y-126523424D01*
X167932989Y-126477669D01*
X168002147Y-126467725D01*
X168065703Y-126496750D01*
X168072181Y-126502782D01*
X169484671Y-127915272D01*
X169484678Y-127915278D01*
X169573961Y-127974935D01*
X169573965Y-127974936D01*
X169573966Y-127974937D01*
X169591219Y-127986465D01*
X169591220Y-127986465D01*
X169591221Y-127986466D01*
X169608181Y-127993491D01*
X169709602Y-128035501D01*
X169709606Y-128035501D01*
X169709607Y-128035502D01*
X169835274Y-128060500D01*
X169835277Y-128060500D01*
X170282297Y-128060500D01*
X170349336Y-128080185D01*
X170395091Y-128132989D01*
X170405035Y-128202147D01*
X170403914Y-128208691D01*
X170389500Y-128281153D01*
X170389500Y-128438846D01*
X170420261Y-128593489D01*
X170420264Y-128593501D01*
X170480602Y-128739172D01*
X170480609Y-128739185D01*
X170568210Y-128870288D01*
X170568213Y-128870292D01*
X170679707Y-128981786D01*
X170679711Y-128981789D01*
X170810814Y-129069390D01*
X170810827Y-129069397D01*
X170931764Y-129119490D01*
X170956503Y-129129737D01*
X171111153Y-129160499D01*
X171111156Y-129160500D01*
X171111158Y-129160500D01*
X171268844Y-129160500D01*
X171344005Y-129145549D01*
X171352381Y-129143882D01*
X171376572Y-129141500D01*
X171472140Y-129141500D01*
X171479580Y-129141722D01*
X171531483Y-129144843D01*
X171546700Y-129145528D01*
X171547272Y-129145545D01*
X171547397Y-129145549D01*
X171547399Y-129145548D01*
X171547402Y-129145549D01*
X171616563Y-129142877D01*
X171616570Y-129142875D01*
X171616574Y-129142875D01*
X171617185Y-129142787D01*
X171635002Y-129141500D01*
X173373725Y-129141500D01*
X173458269Y-129124682D01*
X173499398Y-129116501D01*
X173617781Y-129067465D01*
X173623663Y-129063535D01*
X173724323Y-128996277D01*
X174196277Y-128524323D01*
X174267465Y-128417781D01*
X174282373Y-128381789D01*
X174316501Y-128299398D01*
X174341500Y-128173723D01*
X174341500Y-124926931D01*
X174341500Y-124926928D01*
X174316502Y-124801261D01*
X174316501Y-124801260D01*
X174316501Y-124801256D01*
X174267465Y-124682873D01*
X174240070Y-124641873D01*
X174240070Y-124641872D01*
X174196275Y-124576328D01*
X174196272Y-124576325D01*
X172928024Y-123308078D01*
X172907166Y-123280358D01*
X172893385Y-123255412D01*
X172880307Y-123219642D01*
X172874289Y-123189390D01*
X172869737Y-123166503D01*
X172835843Y-123084674D01*
X172809397Y-123020827D01*
X172809390Y-123020814D01*
X172721789Y-122889711D01*
X172721786Y-122889707D01*
X172610292Y-122778213D01*
X172610288Y-122778210D01*
X172479185Y-122690609D01*
X172479172Y-122690602D01*
X172333501Y-122630264D01*
X172333491Y-122630261D01*
X172179911Y-122599712D01*
X172172878Y-122596033D01*
X172164945Y-122595750D01*
X172142361Y-122580070D01*
X172118000Y-122567327D01*
X172112609Y-122559413D01*
X172107552Y-122555902D01*
X172089543Y-122525549D01*
X172082158Y-122507720D01*
X172078782Y-122499571D01*
X172071313Y-122430104D01*
X172102587Y-122367624D01*
X172162675Y-122331971D01*
X172206597Y-122328830D01*
X172222127Y-122330500D01*
X173317872Y-122330499D01*
X173377483Y-122324091D01*
X173512331Y-122273796D01*
X173524110Y-122264977D01*
X173589570Y-122240558D01*
X173645872Y-122249680D01*
X173748165Y-122292051D01*
X173748169Y-122292051D01*
X173748170Y-122292052D01*
X173941456Y-122330500D01*
X173941459Y-122330500D01*
X174138543Y-122330500D01*
X174268582Y-122304632D01*
X174331835Y-122292051D01*
X174513914Y-122216632D01*
X174606109Y-122155029D01*
X174672786Y-122134151D01*
X174740166Y-122152635D01*
X174743891Y-122155029D01*
X174836086Y-122216632D01*
X174836088Y-122216633D01*
X174836092Y-122216635D01*
X175018160Y-122292049D01*
X175018165Y-122292051D01*
X175018169Y-122292051D01*
X175018170Y-122292052D01*
X175211456Y-122330500D01*
X175211459Y-122330500D01*
X175408543Y-122330500D01*
X175538582Y-122304632D01*
X175601835Y-122292051D01*
X175783914Y-122216632D01*
X175876109Y-122155029D01*
X175942786Y-122134151D01*
X176010166Y-122152635D01*
X176013891Y-122155029D01*
X176106086Y-122216632D01*
X176106088Y-122216633D01*
X176106092Y-122216635D01*
X176288160Y-122292049D01*
X176288165Y-122292051D01*
X176288169Y-122292051D01*
X176288170Y-122292052D01*
X176481456Y-122330500D01*
X176481459Y-122330500D01*
X176678543Y-122330500D01*
X176826444Y-122301079D01*
X176839806Y-122298422D01*
X176909398Y-122304649D01*
X176964575Y-122347512D01*
X176987820Y-122413401D01*
X176971752Y-122481398D01*
X176951679Y-122507720D01*
X176374725Y-123084674D01*
X176374719Y-123084682D01*
X176317113Y-123170896D01*
X176317114Y-123170897D01*
X176317112Y-123170900D01*
X176303535Y-123191219D01*
X176303533Y-123191221D01*
X176303533Y-123191223D01*
X176254499Y-123309601D01*
X176254497Y-123309607D01*
X176229500Y-123435274D01*
X176229500Y-127029488D01*
X176224647Y-127063836D01*
X176224646Y-127063841D01*
X176216747Y-127091237D01*
X176200705Y-127125772D01*
X176170610Y-127170814D01*
X176170602Y-127170828D01*
X176110264Y-127316498D01*
X176110261Y-127316510D01*
X176079500Y-127471153D01*
X176079500Y-127628846D01*
X176110261Y-127783489D01*
X176110264Y-127783501D01*
X176170602Y-127929172D01*
X176170609Y-127929185D01*
X176258210Y-128060288D01*
X176258213Y-128060292D01*
X176369707Y-128171786D01*
X176369711Y-128171789D01*
X176500814Y-128259390D01*
X176500827Y-128259397D01*
X176646498Y-128319735D01*
X176646503Y-128319737D01*
X176801153Y-128350499D01*
X176801156Y-128350500D01*
X176801158Y-128350500D01*
X176958844Y-128350500D01*
X176958845Y-128350499D01*
X177113497Y-128319737D01*
X177259179Y-128259394D01*
X177390289Y-128171789D01*
X177501789Y-128060289D01*
X177589394Y-127929179D01*
X177594771Y-127916199D01*
X177621397Y-127851917D01*
X177649737Y-127783497D01*
X177680500Y-127628842D01*
X177680500Y-127471158D01*
X177680500Y-127471155D01*
X177680499Y-127471153D01*
X177662531Y-127380821D01*
X177649737Y-127316503D01*
X177631925Y-127273501D01*
X177589397Y-127170827D01*
X177589393Y-127170820D01*
X177567606Y-127138213D01*
X177559292Y-127125771D01*
X177558496Y-127124057D01*
X177557750Y-127123404D01*
X177543249Y-127091232D01*
X177535350Y-127063834D01*
X177530500Y-127029490D01*
X177530500Y-124199986D01*
X177550185Y-124132947D01*
X177602989Y-124087192D01*
X177672147Y-124077248D01*
X177701943Y-124085422D01*
X177736503Y-124099737D01*
X177760601Y-124104530D01*
X177789642Y-124110307D01*
X177791414Y-124110954D01*
X177792404Y-124110889D01*
X177825411Y-124123384D01*
X177850359Y-124137167D01*
X177878078Y-124158024D01*
X178283775Y-124563721D01*
X178317260Y-124625044D01*
X178312276Y-124694736D01*
X178270404Y-124750669D01*
X178264985Y-124754504D01*
X178139711Y-124838210D01*
X178139707Y-124838213D01*
X178028213Y-124949707D01*
X178028210Y-124949711D01*
X177940609Y-125080814D01*
X177940602Y-125080827D01*
X177880264Y-125226498D01*
X177880261Y-125226510D01*
X177849500Y-125381153D01*
X177849500Y-125538846D01*
X177880261Y-125693489D01*
X177880264Y-125693501D01*
X177940602Y-125839171D01*
X177940604Y-125839176D01*
X177940606Y-125839179D01*
X177952215Y-125856554D01*
X177958737Y-125866314D01*
X177960434Y-125870107D01*
X177962121Y-125871670D01*
X177975706Y-125904242D01*
X177979253Y-125917999D01*
X177985573Y-125942508D01*
X177989500Y-125973468D01*
X177989500Y-129119488D01*
X177984646Y-129153841D01*
X177976747Y-129181237D01*
X177960705Y-129215772D01*
X177930610Y-129260814D01*
X177930602Y-129260828D01*
X177870264Y-129406498D01*
X177870261Y-129406510D01*
X177839500Y-129561153D01*
X177839500Y-129718846D01*
X177870261Y-129873489D01*
X177870264Y-129873501D01*
X177930602Y-130019172D01*
X177930609Y-130019185D01*
X178018210Y-130150288D01*
X178018213Y-130150292D01*
X178129707Y-130261786D01*
X178129711Y-130261789D01*
X178260814Y-130349390D01*
X178260827Y-130349397D01*
X178406498Y-130409735D01*
X178406503Y-130409737D01*
X178561153Y-130440499D01*
X178561156Y-130440500D01*
X178561158Y-130440500D01*
X178718844Y-130440500D01*
X178718845Y-130440499D01*
X178873497Y-130409737D01*
X179019179Y-130349394D01*
X179150289Y-130261789D01*
X179261789Y-130150289D01*
X179349394Y-130019179D01*
X179409737Y-129873497D01*
X179440500Y-129718842D01*
X179440500Y-129561158D01*
X179440500Y-129561155D01*
X179440499Y-129561153D01*
X179414701Y-129431458D01*
X179409737Y-129406503D01*
X179396401Y-129374306D01*
X179349397Y-129260827D01*
X179349393Y-129260820D01*
X179348074Y-129258846D01*
X179319292Y-129215771D01*
X179318496Y-129214057D01*
X179317750Y-129213404D01*
X179303249Y-129181232D01*
X179295350Y-129153834D01*
X179290500Y-129119490D01*
X179290500Y-125988083D01*
X179296392Y-125950312D01*
X179301414Y-125934609D01*
X179316418Y-125903496D01*
X179329554Y-125883837D01*
X179359394Y-125839179D01*
X179361440Y-125834238D01*
X179405275Y-125779832D01*
X179471567Y-125757761D01*
X179523456Y-125767120D01*
X179640256Y-125815501D01*
X179640260Y-125815501D01*
X179640261Y-125815502D01*
X179765928Y-125840500D01*
X179765931Y-125840500D01*
X179995500Y-125840500D01*
X180062539Y-125860185D01*
X180108294Y-125912989D01*
X180119500Y-125964500D01*
X180119500Y-126634070D01*
X180120276Y-126637971D01*
X180132735Y-126700606D01*
X180135839Y-126716207D01*
X180135839Y-126716209D01*
X180140534Y-126739815D01*
X180144499Y-126759744D01*
X180193535Y-126878127D01*
X180249012Y-126961155D01*
X180264726Y-126984673D01*
X180264727Y-126984674D01*
X181131972Y-127851917D01*
X181152829Y-127879636D01*
X181158040Y-127889069D01*
X181166614Y-127904588D01*
X181179692Y-127940357D01*
X181190261Y-127993491D01*
X181190264Y-127993501D01*
X181250602Y-128139172D01*
X181250609Y-128139185D01*
X181338210Y-128270288D01*
X181338213Y-128270292D01*
X181385740Y-128317819D01*
X181396352Y-128337255D01*
X181410853Y-128353989D01*
X181412769Y-128367320D01*
X181419225Y-128379142D01*
X181417645Y-128401228D01*
X181420797Y-128423147D01*
X181415201Y-128435398D01*
X181414241Y-128448834D01*
X181400970Y-128466560D01*
X181391772Y-128486703D01*
X181380440Y-128493985D01*
X181372369Y-128504767D01*
X181351623Y-128512504D01*
X181332994Y-128524477D01*
X181311075Y-128527628D01*
X181306905Y-128529184D01*
X181298059Y-128529500D01*
X181080508Y-128529500D01*
X181046158Y-128524647D01*
X181018766Y-128516750D01*
X180984227Y-128500706D01*
X180948171Y-128476614D01*
X180939184Y-128470609D01*
X180939181Y-128470607D01*
X180939179Y-128470606D01*
X180939176Y-128470604D01*
X180939171Y-128470602D01*
X180793501Y-128410264D01*
X180793489Y-128410261D01*
X180638845Y-128379500D01*
X180638842Y-128379500D01*
X180481158Y-128379500D01*
X180481155Y-128379500D01*
X180326510Y-128410261D01*
X180326498Y-128410264D01*
X180180827Y-128470602D01*
X180180814Y-128470609D01*
X180049711Y-128558210D01*
X180049707Y-128558213D01*
X179938213Y-128669707D01*
X179938210Y-128669711D01*
X179850609Y-128800814D01*
X179850602Y-128800827D01*
X179790264Y-128946498D01*
X179790261Y-128946510D01*
X179759500Y-129101153D01*
X179759500Y-129258846D01*
X179790261Y-129413489D01*
X179790264Y-129413501D01*
X179850602Y-129559172D01*
X179850609Y-129559185D01*
X179938210Y-129690288D01*
X179938213Y-129690292D01*
X180049707Y-129801786D01*
X180049711Y-129801789D01*
X180180814Y-129889390D01*
X180180827Y-129889397D01*
X180326498Y-129949735D01*
X180326503Y-129949737D01*
X180475578Y-129979390D01*
X180481153Y-129980499D01*
X180481156Y-129980500D01*
X180481158Y-129980500D01*
X180638844Y-129980500D01*
X180638845Y-129980499D01*
X180793497Y-129949737D01*
X180939179Y-129889394D01*
X180984227Y-129859293D01*
X180985938Y-129858498D01*
X180986595Y-129857748D01*
X181018767Y-129843248D01*
X181046162Y-129835351D01*
X181080506Y-129830500D01*
X181854071Y-129830500D01*
X181938615Y-129813682D01*
X181979744Y-129805501D01*
X182098127Y-129756465D01*
X182116639Y-129744096D01*
X182204669Y-129685277D01*
X183083127Y-128806819D01*
X183144450Y-128773334D01*
X183170808Y-128770500D01*
X184604071Y-128770500D01*
X184688615Y-128753682D01*
X184729744Y-128745501D01*
X184848127Y-128696465D01*
X184954669Y-128625276D01*
X185045276Y-128534669D01*
X185078767Y-128484544D01*
X185094180Y-128465764D01*
X185691926Y-127868018D01*
X185719636Y-127847168D01*
X185744591Y-127833382D01*
X185780348Y-127820308D01*
X185833497Y-127809737D01*
X185979179Y-127749394D01*
X186110289Y-127661789D01*
X186221789Y-127550289D01*
X186309394Y-127419179D01*
X186369737Y-127273497D01*
X186400500Y-127118842D01*
X186400500Y-126961158D01*
X186400500Y-126961155D01*
X186400499Y-126961153D01*
X186383984Y-126878127D01*
X186369737Y-126806503D01*
X186350268Y-126759500D01*
X186309397Y-126660827D01*
X186309390Y-126660814D01*
X186221789Y-126529711D01*
X186221786Y-126529707D01*
X186110292Y-126418213D01*
X186110288Y-126418210D01*
X185979185Y-126330609D01*
X185979172Y-126330602D01*
X185833501Y-126270264D01*
X185833489Y-126270261D01*
X185678845Y-126239500D01*
X185678842Y-126239500D01*
X185521158Y-126239500D01*
X185521155Y-126239500D01*
X185366510Y-126270261D01*
X185366498Y-126270264D01*
X185220827Y-126330602D01*
X185220814Y-126330609D01*
X185089711Y-126418210D01*
X185089707Y-126418213D01*
X184978213Y-126529707D01*
X184978210Y-126529711D01*
X184890609Y-126660814D01*
X184890602Y-126660827D01*
X184830263Y-126806500D01*
X184830262Y-126806505D01*
X184819692Y-126859640D01*
X184819044Y-126861411D01*
X184819110Y-126862399D01*
X184806614Y-126895407D01*
X184792828Y-126920362D01*
X184771970Y-126948082D01*
X184286873Y-127433181D01*
X184225550Y-127466666D01*
X184199192Y-127469500D01*
X182788980Y-127469500D01*
X182721941Y-127449815D01*
X182676186Y-127397011D01*
X182674419Y-127392953D01*
X182669395Y-127380824D01*
X182669394Y-127380821D01*
X182626415Y-127316498D01*
X182581789Y-127249710D01*
X182470292Y-127138213D01*
X182470288Y-127138210D01*
X182339185Y-127050609D01*
X182339172Y-127050602D01*
X182193501Y-126990264D01*
X182193491Y-126990261D01*
X182140356Y-126979692D01*
X182138583Y-126979043D01*
X182137592Y-126979110D01*
X182104584Y-126966612D01*
X182079636Y-126952829D01*
X182051919Y-126931973D01*
X181456819Y-126336873D01*
X181423334Y-126275550D01*
X181420500Y-126249192D01*
X181420500Y-125710505D01*
X181425352Y-125676159D01*
X181433247Y-125648771D01*
X181449294Y-125614225D01*
X181479394Y-125569179D01*
X181539737Y-125423497D01*
X181570500Y-125268842D01*
X181570500Y-125111158D01*
X181570500Y-125111155D01*
X181570499Y-125111153D01*
X181564467Y-125080827D01*
X181539737Y-124956503D01*
X181490740Y-124838213D01*
X181479397Y-124810827D01*
X181479390Y-124810814D01*
X181391789Y-124679711D01*
X181391786Y-124679707D01*
X181280292Y-124568213D01*
X181280288Y-124568210D01*
X181149185Y-124480609D01*
X181149172Y-124480602D01*
X181003501Y-124420264D01*
X181003489Y-124420261D01*
X180848845Y-124389500D01*
X180848842Y-124389500D01*
X180691158Y-124389500D01*
X180691155Y-124389500D01*
X180536510Y-124420261D01*
X180536498Y-124420264D01*
X180390828Y-124480602D01*
X180390814Y-124480610D01*
X180345770Y-124510706D01*
X180344063Y-124511498D01*
X180343412Y-124512243D01*
X180311236Y-124526748D01*
X180283844Y-124534646D01*
X180249490Y-124539500D01*
X180150807Y-124539500D01*
X180083768Y-124519815D01*
X180063126Y-124503181D01*
X178902253Y-123342307D01*
X178868768Y-123280984D01*
X178873752Y-123211292D01*
X178915624Y-123155359D01*
X178981088Y-123130942D01*
X179024280Y-123135477D01*
X179051229Y-123143246D01*
X179085770Y-123159291D01*
X179130821Y-123189394D01*
X179130824Y-123189395D01*
X179130825Y-123189396D01*
X179218450Y-123225691D01*
X179276503Y-123249737D01*
X179413522Y-123276992D01*
X179431153Y-123280499D01*
X179431156Y-123280500D01*
X179431158Y-123280500D01*
X179588844Y-123280500D01*
X179588845Y-123280499D01*
X179743497Y-123249737D01*
X179867859Y-123198225D01*
X179889172Y-123189397D01*
X179889172Y-123189396D01*
X179889179Y-123189394D01*
X180020289Y-123101789D01*
X180131789Y-122990289D01*
X180219394Y-122859179D01*
X180279737Y-122713497D01*
X180310500Y-122558842D01*
X180310500Y-122401158D01*
X180310500Y-122401155D01*
X180310499Y-122401153D01*
X180291303Y-122304649D01*
X180279737Y-122246503D01*
X180269861Y-122222660D01*
X180219397Y-122100827D01*
X180219390Y-122100814D01*
X180131789Y-121969711D01*
X180131786Y-121969707D01*
X180020292Y-121858213D01*
X180020288Y-121858210D01*
X179889185Y-121770609D01*
X179889172Y-121770602D01*
X179743501Y-121710264D01*
X179743489Y-121710261D01*
X179588845Y-121679500D01*
X179588842Y-121679500D01*
X179431158Y-121679500D01*
X179431155Y-121679500D01*
X179276510Y-121710261D01*
X179276498Y-121710264D01*
X179130828Y-121770602D01*
X179130814Y-121770610D01*
X179085770Y-121800706D01*
X179084063Y-121801498D01*
X179083412Y-121802243D01*
X179051236Y-121816748D01*
X179023844Y-121824646D01*
X178989490Y-121829500D01*
X177835275Y-121829500D01*
X177709607Y-121854497D01*
X177709602Y-121854499D01*
X177667591Y-121871900D01*
X177598121Y-121879367D01*
X177535643Y-121848092D01*
X177499991Y-121788002D01*
X177502486Y-121718177D01*
X177505571Y-121709903D01*
X177542051Y-121621835D01*
X177564671Y-121508119D01*
X177580500Y-121428543D01*
X177580500Y-121231456D01*
X177542052Y-121038170D01*
X177542051Y-121038169D01*
X177542051Y-121038165D01*
X177501730Y-120940821D01*
X177466635Y-120856092D01*
X177466628Y-120856079D01*
X177357139Y-120692218D01*
X177357136Y-120692214D01*
X177217785Y-120552863D01*
X177217781Y-120552860D01*
X177053920Y-120443371D01*
X177053907Y-120443364D01*
X176871839Y-120367950D01*
X176871829Y-120367947D01*
X176678543Y-120329500D01*
X176678541Y-120329500D01*
X176550808Y-120329500D01*
X176483769Y-120309815D01*
X176463127Y-120293181D01*
X176143674Y-119973727D01*
X176143673Y-119973726D01*
X176143669Y-119973723D01*
X176037127Y-119902535D01*
X175918744Y-119853499D01*
X175918738Y-119853497D01*
X175793071Y-119828500D01*
X175793069Y-119828500D01*
X171854931Y-119828500D01*
X171854929Y-119828500D01*
X171729261Y-119853497D01*
X171729255Y-119853499D01*
X171610874Y-119902534D01*
X171504326Y-119973726D01*
X171504325Y-119973727D01*
X169858061Y-121619992D01*
X169796738Y-121653477D01*
X169727046Y-121648493D01*
X169671113Y-121606621D01*
X169646696Y-121541157D01*
X169648763Y-121508119D01*
X169670500Y-121398844D01*
X169670500Y-121241155D01*
X169670499Y-121241153D01*
X169665435Y-121215694D01*
X169639737Y-121086503D01*
X169619713Y-121038160D01*
X169579397Y-120940827D01*
X169579390Y-120940814D01*
X169491789Y-120809711D01*
X169491786Y-120809707D01*
X169380292Y-120698213D01*
X169380288Y-120698210D01*
X169249185Y-120610609D01*
X169249172Y-120610602D01*
X169103501Y-120550264D01*
X169103489Y-120550261D01*
X168948845Y-120519500D01*
X168948842Y-120519500D01*
X168791158Y-120519500D01*
X168791155Y-120519500D01*
X168636510Y-120550261D01*
X168636498Y-120550264D01*
X168490827Y-120610602D01*
X168490814Y-120610609D01*
X168359711Y-120698210D01*
X168359707Y-120698213D01*
X168248213Y-120809707D01*
X168248210Y-120809711D01*
X168160609Y-120940814D01*
X168160602Y-120940827D01*
X168100263Y-121086500D01*
X168100262Y-121086505D01*
X168089692Y-121139640D01*
X168089045Y-121141408D01*
X168089111Y-121142397D01*
X168076615Y-121175405D01*
X168062830Y-121200359D01*
X168041975Y-121228077D01*
X168023724Y-121246328D01*
X168023718Y-121246336D01*
X167969602Y-121327330D01*
X167969600Y-121327333D01*
X167952539Y-121352865D01*
X167952533Y-121352875D01*
X167903499Y-121471255D01*
X167903497Y-121471261D01*
X167878500Y-121596928D01*
X167878500Y-124025500D01*
X167858815Y-124092539D01*
X167806011Y-124138294D01*
X167754500Y-124149500D01*
X167711155Y-124149500D01*
X167556510Y-124180261D01*
X167556498Y-124180264D01*
X167410827Y-124240602D01*
X167410814Y-124240609D01*
X167279711Y-124328210D01*
X167279707Y-124328213D01*
X167168213Y-124439707D01*
X167168210Y-124439711D01*
X167080609Y-124570814D01*
X167080602Y-124570827D01*
X167020263Y-124716500D01*
X167020262Y-124716505D01*
X167009692Y-124769640D01*
X167009044Y-124771411D01*
X167009110Y-124772399D01*
X166996614Y-124805407D01*
X166982828Y-124830362D01*
X166961971Y-124858082D01*
X166704722Y-125115332D01*
X166661015Y-125180745D01*
X166633535Y-125221872D01*
X166584499Y-125340255D01*
X166584497Y-125340261D01*
X166581117Y-125357256D01*
X166548732Y-125419167D01*
X166488016Y-125453741D01*
X166418246Y-125450000D01*
X166361574Y-125409134D01*
X166335993Y-125344115D01*
X166335500Y-125333064D01*
X166335500Y-123735505D01*
X166340352Y-123701159D01*
X166348247Y-123673771D01*
X166364294Y-123639225D01*
X166394394Y-123594179D01*
X166454737Y-123448497D01*
X166485500Y-123293842D01*
X166485500Y-123136158D01*
X166485500Y-123136155D01*
X166485499Y-123136153D01*
X166484375Y-123130500D01*
X166454737Y-122981503D01*
X166404072Y-122859185D01*
X166394397Y-122835827D01*
X166394390Y-122835814D01*
X166306789Y-122704711D01*
X166306786Y-122704707D01*
X166195292Y-122593213D01*
X166195288Y-122593210D01*
X166064185Y-122505609D01*
X166064172Y-122505602D01*
X165918501Y-122445264D01*
X165918489Y-122445261D01*
X165763845Y-122414500D01*
X165763842Y-122414500D01*
X165606158Y-122414500D01*
X165606155Y-122414500D01*
X165451510Y-122445261D01*
X165451498Y-122445264D01*
X165305827Y-122505602D01*
X165305814Y-122505609D01*
X165174711Y-122593210D01*
X165174707Y-122593213D01*
X165063213Y-122704707D01*
X165063210Y-122704711D01*
X164975609Y-122835814D01*
X164975602Y-122835827D01*
X164915264Y-122981498D01*
X164915261Y-122981510D01*
X164884500Y-123136153D01*
X160010500Y-123136153D01*
X160010500Y-118744500D01*
X160030185Y-118677461D01*
X160082989Y-118631706D01*
X160134500Y-118620500D01*
X188775500Y-118620500D01*
X188842539Y-118640185D01*
G37*
%TD.AperFunction*%
%TA.AperFunction,NonConductor*%
G36*
X172181703Y-124402095D02*
G01*
X172188181Y-124408127D01*
X173004181Y-125224127D01*
X173037666Y-125285450D01*
X173040500Y-125311808D01*
X173040500Y-126621192D01*
X173020815Y-126688231D01*
X172968011Y-126733986D01*
X172898853Y-126743930D01*
X172835297Y-126714905D01*
X172828819Y-126708873D01*
X172012819Y-125892873D01*
X171979334Y-125831550D01*
X171976500Y-125805192D01*
X171976500Y-124495808D01*
X171996185Y-124428769D01*
X172048989Y-124383014D01*
X172118147Y-124373070D01*
X172181703Y-124402095D01*
G37*
%TD.AperFunction*%
%TA.AperFunction,NonConductor*%
G36*
X170484055Y-122936403D02*
G01*
X170539989Y-122978274D01*
X170555283Y-123005132D01*
X170616604Y-123153176D01*
X170616609Y-123153185D01*
X170646704Y-123198225D01*
X170647497Y-123199933D01*
X170648243Y-123200586D01*
X170662748Y-123232762D01*
X170670646Y-123260154D01*
X170675500Y-123294508D01*
X170675500Y-126190070D01*
X170696361Y-126294939D01*
X170696361Y-126294941D01*
X170697477Y-126300554D01*
X170700499Y-126315744D01*
X170749535Y-126434127D01*
X170791378Y-126496750D01*
X170807694Y-126521169D01*
X170810627Y-126530536D01*
X170817097Y-126537920D01*
X170820894Y-126563330D01*
X170828571Y-126587847D01*
X170825973Y-126597313D01*
X170827425Y-126607022D01*
X170816883Y-126630450D01*
X170810086Y-126655227D01*
X170802018Y-126663485D01*
X170798755Y-126670739D01*
X170781016Y-126684985D01*
X170772210Y-126694000D01*
X170764219Y-126699198D01*
X170760821Y-126700606D01*
X170715212Y-126731080D01*
X170714501Y-126731543D01*
X170712999Y-126731992D01*
X170681236Y-126746748D01*
X170653844Y-126754646D01*
X170619490Y-126759500D01*
X170220154Y-126759500D01*
X170153115Y-126739815D01*
X170132473Y-126723181D01*
X169828803Y-126419511D01*
X169795318Y-126358188D01*
X169800302Y-126288496D01*
X169813382Y-126262939D01*
X169889390Y-126149185D01*
X169889390Y-126149184D01*
X169889394Y-126149179D01*
X169949737Y-126003497D01*
X169980500Y-125848842D01*
X169980500Y-125691158D01*
X169980500Y-125691155D01*
X169980499Y-125691153D01*
X169965197Y-125614225D01*
X169949737Y-125536503D01*
X169949735Y-125536498D01*
X169889397Y-125390827D01*
X169889393Y-125390820D01*
X169882934Y-125381153D01*
X169859292Y-125345771D01*
X169858496Y-125344057D01*
X169857750Y-125343404D01*
X169843249Y-125311232D01*
X169835350Y-125283834D01*
X169830500Y-125249490D01*
X169830500Y-123538808D01*
X169850185Y-123471769D01*
X169866819Y-123451127D01*
X170106654Y-123211292D01*
X170353043Y-122964902D01*
X170414364Y-122931419D01*
X170484055Y-122936403D01*
G37*
%TD.AperFunction*%
%TA.AperFunction,Conductor*%
%TO.N,GND*%
G36*
X171695179Y-120600269D02*
G01*
X171751113Y-120642140D01*
X171775530Y-120707605D01*
X171775136Y-120729704D01*
X171769500Y-120782130D01*
X171769500Y-121877870D01*
X171769501Y-121877881D01*
X171771170Y-121893405D01*
X171758762Y-121962164D01*
X171711150Y-122013300D01*
X171643450Y-122030577D01*
X171600428Y-122021217D01*
X171559497Y-122004263D01*
X171559489Y-122004261D01*
X171404845Y-121973500D01*
X171404842Y-121973500D01*
X171247158Y-121973500D01*
X171247155Y-121973500D01*
X171092510Y-122004261D01*
X171092498Y-122004264D01*
X170946827Y-122064602D01*
X170946814Y-122064609D01*
X170815711Y-122152210D01*
X170815707Y-122152213D01*
X170704213Y-122263707D01*
X170704210Y-122263711D01*
X170628421Y-122377137D01*
X170574808Y-122421942D01*
X170516475Y-122431930D01*
X170450426Y-122427207D01*
X170450423Y-122427207D01*
X170306917Y-122437470D01*
X170306914Y-122437470D01*
X170306914Y-122437471D01*
X170172107Y-122487750D01*
X170110779Y-122521237D01*
X170110772Y-122521242D01*
X169995607Y-122607453D01*
X169995589Y-122607469D01*
X169509390Y-123093670D01*
X169509356Y-123093706D01*
X169473218Y-123133938D01*
X169456573Y-123154593D01*
X169424933Y-123198471D01*
X169416294Y-123217389D01*
X169370538Y-123270192D01*
X169303498Y-123289876D01*
X169236459Y-123270191D01*
X169190705Y-123217386D01*
X169179500Y-123165876D01*
X169179500Y-122140960D01*
X169182658Y-122130202D01*
X169181450Y-122119055D01*
X169192327Y-122097275D01*
X169199185Y-122073921D01*
X169208469Y-122064953D01*
X169212668Y-122056547D01*
X169234928Y-122039398D01*
X169240129Y-122034376D01*
X169246967Y-122030309D01*
X169249179Y-122029394D01*
X169254596Y-122025774D01*
X169257392Y-122024112D01*
X169288201Y-122016218D01*
X169318536Y-122006716D01*
X169321798Y-122007610D01*
X169325075Y-122006771D01*
X169355251Y-122016783D01*
X169385918Y-122025193D01*
X169390974Y-122028637D01*
X169391390Y-122028775D01*
X169391650Y-122029097D01*
X169395073Y-122031428D01*
X169424106Y-122053163D01*
X169424114Y-122053169D01*
X169550395Y-122122122D01*
X169690987Y-122152705D01*
X169751956Y-122157065D01*
X169760677Y-122157689D01*
X169760679Y-122157689D01*
X169760680Y-122157689D01*
X169770258Y-122157003D01*
X169904190Y-122147425D01*
X170038999Y-122097143D01*
X170100322Y-122063658D01*
X170215504Y-121977434D01*
X171564167Y-120628768D01*
X171625488Y-120595285D01*
X171695179Y-120600269D01*
G37*
%TD.AperFunction*%
%TD*%
%TA.AperFunction,Conductor*%
%TO.N,Net-(IC2-ISET)*%
G36*
X179306101Y-122272928D02*
G01*
X179308773Y-122274953D01*
X179502896Y-122471784D01*
X179506266Y-122480081D01*
X179502896Y-122488216D01*
X179308773Y-122685046D01*
X179300524Y-122688530D01*
X179297202Y-122688072D01*
X179104223Y-122632438D01*
X179097223Y-122626854D01*
X179095764Y-122621196D01*
X179095764Y-122338803D01*
X179099191Y-122330530D01*
X179104221Y-122327561D01*
X179297203Y-122271927D01*
X179306101Y-122272928D01*
G37*
%TD.AperFunction*%
%TD*%
%TA.AperFunction,Conductor*%
%TO.N,Net-(IC1-ISET)*%
G36*
X168859167Y-121319213D02*
G01*
X168867416Y-121322697D01*
X168870786Y-121330832D01*
X168872700Y-121607278D01*
X168869330Y-121615575D01*
X168866658Y-121617600D01*
X168690862Y-121714716D01*
X168681963Y-121715717D01*
X168676931Y-121712748D01*
X168477251Y-121513068D01*
X168473824Y-121504795D01*
X168475283Y-121499137D01*
X168568261Y-121330832D01*
X168572400Y-121323340D01*
X168579399Y-121317757D01*
X168582719Y-121317299D01*
X168859167Y-121319213D01*
G37*
%TD.AperFunction*%
%TD*%
%TA.AperFunction,Conductor*%
%TO.N,Net-(IC1-BATC)*%
G36*
X180566101Y-124982928D02*
G01*
X180568773Y-124984953D01*
X180762896Y-125181784D01*
X180766266Y-125190081D01*
X180762896Y-125198216D01*
X180568773Y-125395046D01*
X180560524Y-125398530D01*
X180557202Y-125398072D01*
X180364223Y-125342438D01*
X180357223Y-125336854D01*
X180355764Y-125331196D01*
X180355764Y-125048803D01*
X180359191Y-125040530D01*
X180364221Y-125037561D01*
X180557203Y-124981927D01*
X180566101Y-124982928D01*
G37*
%TD.AperFunction*%
%TD*%
%TA.AperFunction,Conductor*%
%TO.N,Net-(D1-K)*%
G36*
X171459848Y-128233835D02*
G01*
X171570517Y-128337533D01*
X171574211Y-128345691D01*
X171574217Y-128346071D01*
X171574217Y-128628575D01*
X171570790Y-128636848D01*
X171562517Y-128640275D01*
X171561815Y-128640254D01*
X171324546Y-128625991D01*
X171316493Y-128622074D01*
X171314719Y-128619415D01*
X171194049Y-128370420D01*
X171193526Y-128361482D01*
X171199368Y-128354844D01*
X171446641Y-128231896D01*
X171455573Y-128231282D01*
X171459848Y-128233835D01*
G37*
%TD.AperFunction*%
%TD*%
%TA.AperFunction,Conductor*%
%TO.N,Net-(IC1-BATP)*%
G36*
X167779167Y-124949213D02*
G01*
X167787416Y-124952697D01*
X167790786Y-124960832D01*
X167792700Y-125237278D01*
X167789330Y-125245575D01*
X167786658Y-125247600D01*
X167610862Y-125344716D01*
X167601963Y-125345717D01*
X167596931Y-125342748D01*
X167397251Y-125143068D01*
X167393824Y-125134795D01*
X167395283Y-125129137D01*
X167488261Y-124960832D01*
X167492400Y-124953340D01*
X167499399Y-124947757D01*
X167502719Y-124947299D01*
X167779167Y-124949213D01*
G37*
%TD.AperFunction*%
%TD*%
%TA.AperFunction,Conductor*%
%TO.N,Net-(IC1-BATC)*%
G36*
X180778216Y-125197103D02*
G01*
X180975046Y-125391226D01*
X180978530Y-125399475D01*
X180978072Y-125402797D01*
X180922439Y-125595777D01*
X180916855Y-125602777D01*
X180911197Y-125604236D01*
X180628803Y-125604236D01*
X180620530Y-125600809D01*
X180617561Y-125595777D01*
X180561927Y-125402797D01*
X180562928Y-125393898D01*
X180564949Y-125391230D01*
X180761784Y-125197102D01*
X180770081Y-125193733D01*
X180778216Y-125197103D01*
G37*
%TD.AperFunction*%
%TD*%
%TA.AperFunction,Conductor*%
%TO.N,Net-(IC2-BIAS)*%
G36*
X178789470Y-129229191D02*
G01*
X178792439Y-129234223D01*
X178848072Y-129427202D01*
X178847071Y-129436101D01*
X178845046Y-129438773D01*
X178648216Y-129632896D01*
X178639919Y-129636266D01*
X178631784Y-129632896D01*
X178434953Y-129438773D01*
X178431469Y-129430524D01*
X178431926Y-129427205D01*
X178487561Y-129234222D01*
X178493145Y-129227223D01*
X178498803Y-129225764D01*
X178781197Y-129225764D01*
X178789470Y-129229191D01*
G37*
%TD.AperFunction*%
%TD*%
%TA.AperFunction,Conductor*%
%TO.N,Net-(IC1-BATP)*%
G36*
X167359470Y-126729191D02*
G01*
X167362439Y-126734223D01*
X167418072Y-126927202D01*
X167417071Y-126936101D01*
X167415046Y-126938773D01*
X167218216Y-127132896D01*
X167209919Y-127136266D01*
X167201784Y-127132896D01*
X167004953Y-126938773D01*
X167001469Y-126930524D01*
X167001926Y-126927205D01*
X167057561Y-126734222D01*
X167063145Y-126727223D01*
X167068803Y-126725764D01*
X167351197Y-126725764D01*
X167359470Y-126729191D01*
G37*
%TD.AperFunction*%
%TD*%
%TA.AperFunction,Conductor*%
%TO.N,Net-(IC1-BATN)*%
G36*
X185589167Y-127039213D02*
G01*
X185597416Y-127042697D01*
X185600786Y-127050832D01*
X185602700Y-127327278D01*
X185599330Y-127335575D01*
X185596658Y-127337600D01*
X185420862Y-127434716D01*
X185411963Y-127435717D01*
X185406931Y-127432748D01*
X185207251Y-127233068D01*
X185203824Y-127224795D01*
X185205283Y-127219137D01*
X185298261Y-127050832D01*
X185302400Y-127043340D01*
X185309399Y-127037757D01*
X185312719Y-127037299D01*
X185589167Y-127039213D01*
G37*
%TD.AperFunction*%
%TD*%
%TA.AperFunction,Conductor*%
%TO.N,Net-(IC1-BATC)*%
G36*
X181780862Y-127365283D02*
G01*
X181956658Y-127462399D01*
X181962242Y-127469399D01*
X181962700Y-127472721D01*
X181960786Y-127749167D01*
X181957302Y-127757416D01*
X181949167Y-127760786D01*
X181672721Y-127762699D01*
X181664424Y-127759329D01*
X181662399Y-127756657D01*
X181565283Y-127580862D01*
X181564282Y-127571963D01*
X181567249Y-127566933D01*
X181766932Y-127367250D01*
X181775204Y-127363824D01*
X181780862Y-127365283D01*
G37*
%TD.AperFunction*%
%TD*%
%TA.AperFunction,Conductor*%
%TO.N,Net-(IC1-BATP)*%
G36*
X172860862Y-127445283D02*
G01*
X173036658Y-127542399D01*
X173042242Y-127549399D01*
X173042700Y-127552721D01*
X173040786Y-127829167D01*
X173037302Y-127837416D01*
X173029167Y-127840786D01*
X172752721Y-127842699D01*
X172744424Y-127839329D01*
X172742399Y-127836657D01*
X172645283Y-127660862D01*
X172644282Y-127651963D01*
X172647249Y-127646933D01*
X172846932Y-127447250D01*
X172855204Y-127443824D01*
X172860862Y-127445283D01*
G37*
%TD.AperFunction*%
%TD*%
%TA.AperFunction,Conductor*%
%TO.N,Net-(IC1-ISET)*%
G36*
X170936101Y-127202928D02*
G01*
X170938773Y-127204953D01*
X171132896Y-127401784D01*
X171136266Y-127410081D01*
X171132896Y-127418216D01*
X170938773Y-127615046D01*
X170930524Y-127618530D01*
X170927202Y-127618072D01*
X170734223Y-127562438D01*
X170727223Y-127556854D01*
X170725764Y-127551196D01*
X170725764Y-127268803D01*
X170729191Y-127260530D01*
X170734221Y-127257561D01*
X170927203Y-127201927D01*
X170936101Y-127202928D01*
G37*
%TD.AperFunction*%
%TD*%
%TA.AperFunction,Conductor*%
%TO.N,Net-(IC2-BIAS)*%
G36*
X178658022Y-125467304D02*
G01*
X178850091Y-125666129D01*
X178853374Y-125674460D01*
X178852820Y-125677822D01*
X178792602Y-125866100D01*
X178786818Y-125872936D01*
X178781458Y-125874236D01*
X178499067Y-125874236D01*
X178490794Y-125870809D01*
X178487738Y-125865457D01*
X178436798Y-125667883D01*
X178438050Y-125659016D01*
X178440106Y-125656443D01*
X178641590Y-125466910D01*
X178649964Y-125463738D01*
X178658022Y-125467304D01*
G37*
%TD.AperFunction*%
%TD*%
%TA.AperFunction,Conductor*%
%TO.N,Net-(IC1-BATP)*%
G36*
X171334216Y-122781103D02*
G01*
X171531046Y-122975226D01*
X171534530Y-122983475D01*
X171534072Y-122986797D01*
X171478439Y-123179777D01*
X171472855Y-123186777D01*
X171467197Y-123188236D01*
X171184803Y-123188236D01*
X171176530Y-123184809D01*
X171173561Y-123179777D01*
X171117927Y-122986797D01*
X171118928Y-122977898D01*
X171120949Y-122975230D01*
X171317784Y-122781102D01*
X171326081Y-122777733D01*
X171334216Y-122781103D01*
G37*
%TD.AperFunction*%
%TD*%
%TA.AperFunction,Conductor*%
%TO.N,Net-(IC1-BATC)*%
G36*
X178265575Y-123330669D02*
G01*
X178267600Y-123333341D01*
X178364716Y-123509137D01*
X178365717Y-123518036D01*
X178362748Y-123523068D01*
X178163068Y-123722748D01*
X178154795Y-123726175D01*
X178149137Y-123724716D01*
X177973341Y-123627600D01*
X177967757Y-123620600D01*
X177967299Y-123617278D01*
X177967995Y-123516843D01*
X177969213Y-123340831D01*
X177972697Y-123332583D01*
X177980831Y-123329213D01*
X178257278Y-123327299D01*
X178265575Y-123330669D01*
G37*
%TD.AperFunction*%
%TD*%
%TA.AperFunction,Conductor*%
%TO.N,Net-(D1-K)*%
G36*
X172395575Y-123400669D02*
G01*
X172397600Y-123403341D01*
X172494716Y-123579137D01*
X172495717Y-123588036D01*
X172492748Y-123593068D01*
X172293068Y-123792748D01*
X172284795Y-123796175D01*
X172279137Y-123794716D01*
X172103341Y-123697600D01*
X172097757Y-123690600D01*
X172097299Y-123687278D01*
X172097995Y-123586843D01*
X172099213Y-123410831D01*
X172102697Y-123402583D01*
X172110831Y-123399213D01*
X172387278Y-123397299D01*
X172395575Y-123400669D01*
G37*
%TD.AperFunction*%
%TD*%
%TA.AperFunction,Conductor*%
%TO.N,Net-(IC1-BATN)*%
G36*
X165693216Y-123222103D02*
G01*
X165890046Y-123416226D01*
X165893530Y-123424475D01*
X165893072Y-123427797D01*
X165837439Y-123620777D01*
X165831855Y-123627777D01*
X165826197Y-123629236D01*
X165543803Y-123629236D01*
X165535530Y-123625809D01*
X165532561Y-123620777D01*
X165476927Y-123427797D01*
X165477928Y-123418898D01*
X165479949Y-123416230D01*
X165676784Y-123222102D01*
X165685081Y-123218733D01*
X165693216Y-123222103D01*
G37*
%TD.AperFunction*%
%TD*%
%TA.AperFunction,Conductor*%
%TO.N,Net-(IC1-BATN)*%
G36*
X166950862Y-128875283D02*
G01*
X167126658Y-128972399D01*
X167132242Y-128979399D01*
X167132700Y-128982721D01*
X167130786Y-129259167D01*
X167127302Y-129267416D01*
X167119167Y-129270786D01*
X166842721Y-129272699D01*
X166834424Y-129269329D01*
X166832399Y-129266657D01*
X166735283Y-129090862D01*
X166734282Y-129081963D01*
X166737249Y-129076933D01*
X166936932Y-128877250D01*
X166945204Y-128873824D01*
X166950862Y-128875283D01*
G37*
%TD.AperFunction*%
%TD*%
%TA.AperFunction,Conductor*%
%TO.N,Net-(IC2-ISET)*%
G36*
X177029470Y-127139191D02*
G01*
X177032439Y-127144223D01*
X177088072Y-127337202D01*
X177087071Y-127346101D01*
X177085046Y-127348773D01*
X176888216Y-127542896D01*
X176879919Y-127546266D01*
X176871784Y-127542896D01*
X176674953Y-127348773D01*
X176671469Y-127340524D01*
X176671926Y-127337205D01*
X176727561Y-127144222D01*
X176733145Y-127137223D01*
X176738803Y-127135764D01*
X177021197Y-127135764D01*
X177029470Y-127139191D01*
G37*
%TD.AperFunction*%
%TD*%
%TA.AperFunction,Conductor*%
%TO.N,Net-(IC1-BATN)*%
G36*
X180772795Y-128971926D02*
G01*
X180965777Y-129027561D01*
X180972777Y-129033145D01*
X180974236Y-129038803D01*
X180974236Y-129321196D01*
X180970809Y-129329469D01*
X180965777Y-129332438D01*
X180772797Y-129388072D01*
X180763898Y-129387071D01*
X180761226Y-129385046D01*
X180567103Y-129188216D01*
X180563733Y-129179919D01*
X180567103Y-129171784D01*
X180761227Y-128974952D01*
X180769475Y-128971469D01*
X180772795Y-128971926D01*
G37*
%TD.AperFunction*%
%TD*%
%TA.AperFunction,Conductor*%
%TO.N,GND*%
G36*
X169329470Y-125359191D02*
G01*
X169332439Y-125364223D01*
X169388072Y-125557202D01*
X169387071Y-125566101D01*
X169385046Y-125568773D01*
X169188216Y-125762896D01*
X169179919Y-125766266D01*
X169171784Y-125762896D01*
X168974953Y-125568773D01*
X168971469Y-125560524D01*
X168971926Y-125557205D01*
X169027561Y-125364222D01*
X169033145Y-125357223D01*
X169038803Y-125355764D01*
X169321197Y-125355764D01*
X169329470Y-125359191D01*
G37*
%TD.AperFunction*%
%TD*%
M02*
